<?xml version="1.0" encoding="UTF-8"?>
<svg version="1.1" xmlns="http://www.w3.org/2000/svg" width="293" height="245">
<path d="M0 0 C2.05498806 -0.00134932 4.1099758 -0.00329207 6.16496277 -0.00579834 C10.45237291 -0.00873373 14.73969926 -0.00450098 19.02709961 0.00488281 C24.51581087 0.01631253 30.00432727 0.00968559 35.4930315 -0.00226212 C39.72840339 -0.00949286 43.96372912 -0.00718781 48.1991024 -0.00200653 C50.22326366 -0.00067527 52.24742915 -0.00229937 54.27158546 -0.00696564 C57.09759248 -0.0120548 59.92328402 -0.0042886 62.74926758 0.00683594 C63.58003311 0.00278748 64.41079865 -0.00126099 65.26673889 -0.00543213 C72.86186204 0.04984677 79.28725578 1.83673593 84.79296875 7.265625 C89.33687107 13.38505123 90.65063013 19.52660472 90.34765625 27.07421875 C89.21816984 33.57274269 85.81709355 38.2415002 81.23046875 42.828125 C77.68827234 44.91711263 74.85636301 45.265625 70.79296875 45.265625 C71.45296875 45.925625 72.11296875 46.585625 72.79296875 47.265625 C79.79296875 56.17471591 79.79296875 56.17471591 79.79296875 59.265625 C80.45296875 59.265625 81.11296875 59.265625 81.79296875 59.265625 C84.23341948 62.72293021 85.57362389 66.23240737 86.79296875 70.265625 C81.48608113 72.91906881 72.57266679 72.4899584 66.79296875 71.265625 C63.51424189 68.73374869 62.34285539 66.02518939 60.79296875 62.265625 C60.25542969 61.54890625 59.71789062 60.8321875 59.1640625 60.09375 C57.79296875 58.265625 57.79296875 58.265625 57.79296875 56.265625 C57.13296875 55.935625 56.47296875 55.605625 55.79296875 55.265625 C53.46807353 52.58847293 51.92072746 50.64890112 50.79296875 47.265625 C48.48296875 47.265625 46.17296875 47.265625 43.79296875 47.265625 C43.79296875 54.855625 43.79296875 62.445625 43.79296875 70.265625 C40.15626571 71.47785935 36.99014848 71.25038267 33.23046875 71.015625 C32.54533203 70.98855469 31.86019531 70.96148437 31.15429688 70.93359375 C29.1640625 70.8125 29.1640625 70.8125 25.79296875 70.265625 C23.64229863 67.03961983 23.57184471 66.48479568 23.81640625 62.8359375 C23.86788818 61.96364502 23.91937012 61.09135254 23.97241211 60.19262695 C24.0369458 59.26796631 24.10147949 58.34330566 24.16796875 57.390625 C24.28395726 55.49104879 24.39724152 53.59130551 24.5078125 51.69140625 C24.56179199 50.76537598 24.61577148 49.8393457 24.67138672 48.88525391 C24.87772339 44.4394858 24.77703157 40.01412242 24.6328125 35.56640625 C24.79296875 33.265625 24.79296875 33.265625 26.79296875 31.265625 C29.69932281 31.10236789 32.50946612 31.0585556 35.4140625 31.10546875 C36.26976334 31.11067032 37.12546417 31.11587189 38.00709534 31.12123108 C40.74839037 31.13908108 43.48931587 31.1702494 46.23046875 31.203125 C48.96801559 31.23073818 51.70550892 31.25545893 54.44313049 31.27430725 C56.14820631 31.28656461 57.8532537 31.30416853 59.55821228 31.32762146 C62.90176202 31.35582927 65.59693943 31.33096811 68.79296875 30.265625 C71.05865546 27.04596494 71.21236807 24.12409877 70.79296875 20.265625 C66.86006397 17.64368848 63.48181197 17.95826334 58.9152832 17.94677734 C58.00776306 17.93673172 57.10024292 17.9266861 56.16522217 17.91633606 C53.16223796 17.88541798 50.15934324 17.86844494 47.15625 17.8515625 C45.07544683 17.83285779 42.9946513 17.81328491 40.91386414 17.7928772 C35.43452451 17.74147635 29.95516026 17.70189318 24.47570801 17.66473389 C18.88543571 17.62474407 13.2952665 17.57362885 7.70507812 17.5234375 C-3.26555267 17.42658405 -14.23624156 17.34220942 -25.20703125 17.265625 C-25.39265625 18.565 -25.57828125 19.864375 -25.76953125 21.203125 C-25.87394531 21.93402344 -25.97835937 22.66492188 -26.0859375 23.41796875 C-26.12589844 24.02769531 -26.16585937 24.63742188 -26.20703125 25.265625 C-24.40682221 27.06583404 -21.66270613 26.4812803 -19.23046875 26.546875 C-18.00199219 26.58425781 -16.77351563 26.62164062 -15.5078125 26.66015625 C-13.56455078 26.71236328 -13.56455078 26.71236328 -11.58203125 26.765625 C-9.04807608 26.83494292 -6.51421364 26.90775498 -3.98046875 26.984375 C-2.85044434 27.01466797 -1.72041992 27.04496094 -0.55615234 27.07617188 C6.73223062 27.48846122 11.41027912 28.33032776 16.79296875 33.265625 C21.87447132 39.74892139 22.04817391 46.81934906 21.27734375 54.65234375 C20.76455259 57.41893477 20.01710285 59.7330867 18.79296875 62.265625 C17.80296875 62.760625 17.80296875 62.760625 16.79296875 63.265625 C16.13296875 64.255625 15.47296875 65.245625 14.79296875 66.265625 C9.96638839 71.23846537 4.89086652 71.19477072 -1.70803833 71.30886841 C-4.37739592 71.28643255 -7.04265776 71.22328401 -9.7109375 71.14453125 C-10.67482895 71.12092026 -11.6387204 71.09730927 -12.63182068 71.07298279 C-15.67790176 70.9970692 -18.7236807 70.91273866 -21.76953125 70.828125 C-23.84829304 70.77483172 -25.9270691 70.72209197 -28.00585938 70.66992188 C-33.07310406 70.54155329 -38.14009557 70.40564121 -43.20703125 70.265625 C-43.37299606 65.30742641 -42.542647 62.64490453 -40.20703125 58.265625 C-40.20703125 57.275625 -40.20703125 56.285625 -40.20703125 55.265625 C-35.33054117 53.31637793 -30.92910581 52.99958833 -25.74609375 53.0703125 C-24.95552582 53.0731424 -24.16495789 53.07597229 -23.35043335 53.07888794 C-20.84414041 53.09001545 -18.3382148 53.11510574 -15.83203125 53.140625 C-14.12500519 53.15066442 -12.41797348 53.15978859 -10.7109375 53.16796875 C-6.54282885 53.18993037 -2.37499217 53.22440829 1.79296875 53.265625 C2.51553704 48.78428926 2.51553704 48.78428926 2.79296875 44.265625 C1.57222656 44.27722656 0.35148437 44.28882813 -0.90625 44.30078125 C-31.56072254 44.50678829 -31.56072254 44.50678829 -37.45703125 39.265625 C-38.03453125 38.605625 -38.61203125 37.945625 -39.20703125 37.265625 C-39.86703125 36.605625 -40.52703125 35.945625 -41.20703125 35.265625 C-43.52217463 30.54273251 -44.66737902 26.55421689 -45.20703125 21.265625 C-44.54703125 21.265625 -43.88703125 21.265625 -43.20703125 21.265625 C-43.24828125 20.193125 -43.28953125 19.120625 -43.33203125 18.015625 C-43.21844875 14.60815015 -42.99429761 13.05822869 -41.20703125 10.265625 C-40.54703125 10.265625 -39.88703125 10.265625 -39.20703125 10.265625 C-39.16578125 9.688125 -39.12453125 9.110625 -39.08203125 8.515625 C-37.74856807 5.08671967 -35.43489027 3.71960045 -32.20703125 2.265625 C-21.89944156 -0.86174307 -10.64397241 -0.0246797 0 0 Z " fill="#2C358E" transform="translate(114.20703125,75.734375)"/>
<path d="M0 0 C3.15842999 2.57923366 3.99251691 5.35531286 5.1875 9.1875 C5.53167969 10.27417969 5.87585938 11.36085938 6.23046875 12.48046875 C6.48441406 13.31191406 6.73835938 14.14335938 7 15 C7.64324219 15.0093457 8.28648437 15.01869141 8.94921875 15.02832031 C32.76274804 15.46144798 51.85759915 18.30440564 69.59765625 35.4453125 C77.08822519 43.41089312 80.82306901 51.5791719 84 62 C84.25910156 62.74636719 84.51820313 63.49273437 84.78515625 64.26171875 C87.84079887 74.56186506 85.83082926 87.84231853 83 98 C82.67 99.2375 82.34 100.475 82 101.75 C80.45346581 106.77623613 78.39454578 111.31975142 76 116 C75.34 116 74.68 116 74 116 C73.62875 117.6396875 73.62875 117.6396875 73.25 119.3125 C71.89410651 123.31238578 71.35183883 123.79736305 68 126 C67.175 127.010625 66.35 128.02125 65.5 129.0625 C63.21279881 131.74996139 62.09623327 132.65829892 59 134 C58.56816406 134.45246094 58.13632813 134.90492188 57.69140625 135.37109375 C43.80467517 148.74468927 20.27459584 152.59889733 1.85766602 152.40429688 C-6.67791273 152.17216476 -14.71339154 151.12230015 -23 149 C-23.79873535 148.79648926 -24.5974707 148.59297852 -25.42041016 148.38330078 C-29.56333365 147.31743741 -33.69519076 146.21857417 -37.8203125 145.0859375 C-41.19091958 144.17665037 -44.54062839 143.49735375 -48 143 C-48 142.34 -48 141.68 -48 141 C-49.13179687 140.88398438 -50.26359375 140.76796875 -51.4296875 140.6484375 C-56.12569063 140.060147 -60.57292347 138.89216933 -65.125 137.625 C-72.15471946 135.71606756 -79.17193556 134.02644703 -86.3125 132.578125 C-89 132 -89 132 -92 131 C-92 130.34 -92 129.68 -92 129 C-83.30799576 127.73570847 -75.2177198 127.70257237 -66.5625 129.25 C-65.80042236 129.38059814 -65.03834473 129.51119629 -64.25317383 129.64575195 C-57.76254392 130.79006335 -51.33471229 132.19356593 -44.92602539 133.72949219 C-41.21394119 134.60132426 -37.81864952 135.21756549 -34 135 C-34 135.66 -34 136.32 -34 137 C-33.38253906 137.06058594 -32.76507813 137.12117187 -32.12890625 137.18359375 C-30.35002211 137.35958685 -28.57139094 137.53814859 -26.79296875 137.71875 C-25.067109 137.89254287 -23.34062941 138.06043331 -21.61328125 138.21875 C-20.87464844 138.2909375 -20.13601562 138.363125 -19.375 138.4375 C-18.72273438 138.49808594 -18.07046875 138.55867187 -17.3984375 138.62109375 C-15 139 -15 139 -11.359375 140.015625 C-6.52565908 141.25015941 -1.844001 141.34255444 3.125 141.3125 C4.50171875 141.30839111 4.50171875 141.30839111 5.90625 141.30419922 C15.40042453 141.15959257 24.18900623 139.66884003 33 136 C35.04143779 135.25222059 37.08593136 134.51398566 39.1328125 133.78125 C41.27367252 132.95517432 41.27367252 132.95517432 44 131 C44.99 131 45.98 131 47 131 C47.33 130.01 47.66 129.02 48 128 C48.721875 127.5875 49.44375 127.175 50.1875 126.75 C53.43826345 124.72730274 55.32547325 122.41107235 57.66796875 119.42578125 C58.10753906 118.95527344 58.54710937 118.48476562 59 118 C59.66 118 60.32 118 61 118 C62.09351514 115.82815743 63.16779742 113.64988423 64.21875 111.45703125 C64.6415625 110.58433594 65.064375 109.71164063 65.5 108.8125 C65.9228125 107.93207031 66.345625 107.05164063 66.78125 106.14453125 C68 104 68 104 70 103 C70 101.68 70 100.36 70 99 C70.66 99 71.32 99 72 99 C71.67 98.01 71.34 97.02 71 96 C71.433125 94.7934375 71.433125 94.7934375 71.875 93.5625 C73.49593591 88.42953628 73.70069778 83.35263731 74 78 C74.09861328 76.86884766 74.09861328 76.86884766 74.19921875 75.71484375 C74.72861665 65.94836519 71.18243805 56.14383122 66 48 C66 47.34 66 46.68 66 46 C65.34 46 64.68 46 64 46 C63.896875 45.360625 63.79375 44.72125 63.6875 44.0625 C63.460625 43.381875 63.23375 42.70125 63 42 C62.01 41.67 61.02 41.34 60 41 C60 40.34 60 39.68 60 39 C59.4328125 38.73832031 58.865625 38.47664063 58.28125 38.20703125 C55.8151383 36.9021879 53.72953223 35.36336506 51.5 33.6875 C46.00029742 29.79153985 40.30348296 27.3169559 34 25 C33.16984375 24.690625 32.3396875 24.38125 31.484375 24.0625 C26.9913026 22.47311384 22.7387036 21.5041174 18 21 C17.505 22.485 17.505 22.485 17 24 C16.34 24 15.68 24 15 24 C13.62689293 25.29233607 12.28965176 26.62437146 11 28 C11.474375 28.9075 11.94875 29.815 12.4375 30.75 C13.66045036 33.29373674 14.43819751 35.28462128 15 38 C15.33 38.99 15.66 39.98 16 41 C15.34 41.99 14.68 42.98 14 44 C12 44 12 44 10.63671875 42.69921875 C10.09660156 42.13847656 9.55648437 41.57773437 9 41 C7.62072308 39.91609404 6.22415608 38.85388564 4.8125 37.8125 C4.09707031 37.28269531 3.38164062 36.75289062 2.64453125 36.20703125 C2.10183594 35.80871094 1.55914062 35.41039062 1 35 C0.01 35.99 0.01 35.99 -1 37 C-2.485 37.495 -2.485 37.495 -4 38 C-4.495 38.99 -4.495 38.99 -5 40 C-5.66 40 -6.32 40 -7 40 C-7 40.66 -7 41.32 -7 42 C-8.98 42.33 -10.96 42.66 -13 43 C-14 41 -14 41 -13.1875 38.03125 C-12.39583333 35.67708333 -11.60416667 33.32291667 -10.8125 30.96875 C-9.67220669 28.09937144 -9.67220669 28.09937144 -11 26 C-13.5471824 23.877348 -16.16712093 21.87373085 -18.8125 19.875 C-19.8953125 18.946875 -19.8953125 18.946875 -21 18 C-21 17.34 -21 16.68 -21 16 C-12.585 15.505 -12.585 15.505 -4 15 C-3.67 12.36 -3.34 9.72 -3 7 C-2.5625 3.5625 -2.5625 3.5625 -2 1 C-1.34 0.67 -0.68 0.34 0 0 Z " fill="#2B3385" transform="translate(150,22)"/>
<path d="M0 0 C0.94875 0.33 1.8975 0.66 2.875 1 C5.77062452 2.10159191 5.77062452 2.10159191 8 2 C8.04898438 2.69867188 8.09796875 3.39734375 8.1484375 4.1171875 C8.22320312 5.02726562 8.29796875 5.93734375 8.375 6.875 C8.44460937 7.77992187 8.51421875 8.68484375 8.5859375 9.6171875 C8.79568132 12.17941903 8.79568132 12.17941903 11 14 C13.86658507 14.24555919 13.86658507 14.24555919 17.21484375 14.125 C19.07979492 14.10179688 19.07979492 14.10179688 20.98242188 14.078125 C23.6152359 14.0261188 26.24804841 13.97403569 28.88085938 13.921875 C30.74774414 13.89867188 30.74774414 13.89867188 32.65234375 13.875 C33.79695068 13.85179688 34.94155762 13.82859375 36.12084961 13.8046875 C39 14 39 14 42 16 C43.65549531 16.38499891 45.3222433 16.72793135 47 17 C47 17.66 47 18.32 47 19 C47.763125 19.2475 48.52625 19.495 49.3125 19.75 C52.28607889 21.13305995 53.32123929 22.23004483 55 25 C57.04065442 31.12196326 56.87552194 38.41951428 54.8125 44.5 C51.10807703 49.60954892 48.17973442 52.46002709 42 54 C38.44769402 54.26123345 34.91179115 54.2329968 31.3515625 54.1953125 C30.33903412 54.1924826 29.32650574 54.18965271 28.28329468 54.18673706 C25.06374062 54.17558254 21.84446935 54.15048646 18.625 54.125 C16.43620195 54.1149641 14.24739951 54.10583931 12.05859375 54.09765625 C6.70563342 54.0756587 1.35283692 54.04222824 -4 54 C-4.495 52.515 -4.495 52.515 -5 51 C-4.34 51 -3.68 51 -3 51 C-2.01 48.03 -1.02 45.06 0 42 C13.53 42 27.06 42 41 42 C42.07841911 37.68632355 43.06400794 33.12801588 41 29 C37.68030494 27.89343498 35.14063823 27.85831395 31.64453125 27.82421875 C30.38189453 27.80037109 29.11925781 27.77652344 27.81835938 27.75195312 C25.16696034 27.70556256 22.51717252 27.67788599 19.86523438 27.65820312 C11.70435215 27.47998173 5.1847723 27.22919664 -0.83984375 21.140625 C-3.6277202 16.33873104 -5 12.60265841 -5 7 C-3.64339984 4.02839965 -2.29716559 2.29716559 0 0 Z " fill="#2C358E" transform="translate(77,90)"/>
<path d="M0 0 C7.68148134 -0.80015431 11.6325028 2.31023808 17.484375 6.984375 C27.81737269 15.81439121 33.07990755 25.13820908 37 38 C37.34417969 39.10214844 37.34417969 39.10214844 37.6953125 40.2265625 C38 42 38 42 37 45 C36.82007337 46.64222665 36.68195244 48.28922257 36.5703125 49.9375 C36.49683594 50.91589844 36.42335937 51.89429688 36.34765625 52.90234375 C36.20149304 54.93580741 36.06069191 56.96966505 35.92578125 59.00390625 C35.24845057 67.80920513 33.37576406 75.83536134 30 84 C29.34 84 28.68 84 28 84 C28 84.66 28 85.32 28 86 C26.515 85.505 26.515 85.505 25 85 C25.33 84.34 25.66 83.68 26 83 C24.515 82.505 24.515 82.505 23 82 C23.474375 81.01 23.94875 80.02 24.4375 79 C26.16813748 75.00810505 26.62115314 71.31885418 27 67 C27.66 67 28.32 67 29 67 C29.5412195 46.20606924 28.27119155 30.18685692 13.453125 14.28515625 C10.22679365 11.27973613 6.74294967 8.93365343 2.96875 6.66796875 C0.50764533 4.58286618 0.29936066 3.14863269 0 0 Z " fill="#2D3587" transform="translate(197,46)"/>
<path d="M0 0 C2.78236378 3.99162188 2.08216556 8.07157657 1.75 12.6875 C1.6977124 13.49678955 1.6454248 14.3060791 1.59155273 15.13989258 C1.19991101 20.6058009 0.47462621 25.70869419 -1 31 C-1.33 32.2375 -1.66 33.475 -2 34.75 C-3.54653419 39.77623613 -5.60545422 44.31975142 -8 49 C-8.66 49 -9.32 49 -10 49 C-10.37125 50.6396875 -10.37125 50.6396875 -10.75 52.3125 C-12.10589349 56.31238578 -12.64816117 56.79736305 -16 59 C-17.75933042 60.93476223 -19.36503177 62.95628972 -21 65 C-22.32 64.67 -23.64 64.34 -25 64 C-23.02 61.69 -21.04 59.38 -19 57 C-19.66 57 -20.32 57 -21 57 C-21.33 57.66 -21.66 58.32 -22 59 C-21.30058404 55.85262818 -20.23921302 52.97411124 -19 50 C-19.639375 50.66 -20.27875 51.32 -20.9375 52 C-37.9326266 68.85231041 -37.9326266 68.85231041 -49 71 C-49.33 71.66 -49.66 72.32 -50 73 C-75.76726052 81.08731888 -100.52278132 76.13574191 -126.10137939 70.42102051 C-129.68213667 69.62698496 -133.27206598 68.87688569 -136.86206055 68.12597656 C-138.37897571 67.80773611 -139.89490254 67.4847182 -141.40942383 67.15527344 C-145.59558128 66.24943333 -149.75722347 65.5605741 -154 65 C-154 64.34 -154 63.68 -154 63 C-146.83695381 62.70522444 -140.68279772 63.76210355 -133.75 65.5 C-131.82935373 65.97375941 -129.90750724 66.44268507 -127.984375 66.90625 C-127.14616211 67.11572266 -126.30794922 67.32519531 -125.44433594 67.54101562 C-122.90749625 68.01736986 -120.57500778 68.08043309 -118 68 C-118 68.66 -118 69.32 -118 70 C-117.38253906 70.06058594 -116.76507813 70.12117188 -116.12890625 70.18359375 C-114.35002211 70.35958685 -112.57139094 70.53814859 -110.79296875 70.71875 C-109.067109 70.89254287 -107.34062941 71.06043331 -105.61328125 71.21875 C-104.87464844 71.2909375 -104.13601562 71.363125 -103.375 71.4375 C-102.72273438 71.49808594 -102.07046875 71.55867188 -101.3984375 71.62109375 C-99 72 -99 72 -95.359375 73.015625 C-90.52565908 74.25015941 -85.844001 74.34255444 -80.875 74.3125 C-79.9571875 74.30976074 -79.039375 74.30702148 -78.09375 74.30419922 C-68.59957547 74.15959257 -59.81099377 72.66884003 -51 69 C-48.95856221 68.25222059 -46.91406864 67.51398566 -44.8671875 66.78125 C-42.72632748 65.95517432 -42.72632748 65.95517432 -40 64 C-39.01 64 -38.02 64 -37 64 C-36.67 63.01 -36.34 62.02 -36 61 C-35.278125 60.5875 -34.55625 60.175 -33.8125 59.75 C-30.56173655 57.72730274 -28.67452675 55.41107235 -26.33203125 52.42578125 C-25.89246094 51.95527344 -25.45289063 51.48476562 -25 51 C-24.34 51 -23.68 51 -23 51 C-21.90648486 48.82815743 -20.83220258 46.64988423 -19.78125 44.45703125 C-19.3584375 43.58433594 -18.935625 42.71164063 -18.5 41.8125 C-18.0771875 40.93207031 -17.654375 40.05164063 -17.21875 39.14453125 C-16 37 -16 37 -14 36 C-14 34.68 -14 33.36 -14 32 C-13.34 32 -12.68 32 -12 32 C-12.33 31.01 -12.66 30.02 -13 29 C-12.0625 26.8125 -12.0625 26.8125 -11 25 C-10.34 25 -9.68 25 -9 25 C-9.28427417 26.58467728 -9.57774818 28.1677057 -9.875 29.75 C-10.11863281 31.07257813 -10.11863281 31.07257813 -10.3671875 32.421875 C-10.96796264 34.86947744 -11.77997117 36.80599857 -13 39 C-12.34 39.33 -11.68 39.66 -11 40 C-11 40.66 -11 41.32 -11 42 C-10.34 42.33 -9.68 42.66 -9 43 C-9 42.34 -9 41.68 -9 41 C-8.34 41 -7.68 41 -7 41 C-6.79866455 39.91900024 -6.79866455 39.91900024 -6.59326172 38.81616211 C-6.02790013 36.1324395 -5.29680985 33.56669217 -4.5078125 30.94140625 C-2.85591482 24.96105494 -2.28260711 19.11154892 -1.875 12.9375 C-1.73007204 10.90469466 -1.58180824 8.87212349 -1.4296875 6.83984375 C-1.37022949 5.95675537 -1.31077148 5.07366699 -1.24951172 4.16381836 C-1 2 -1 2 0 0 Z " fill="#1E266A" transform="translate(234,89)"/>
<path d="M0 0 C1.125 5.75 1.125 5.75 0 8 C0.99 7.67 1.98 7.34 3 7 C3.15811388 3.94729537 3.15811388 3.94729537 2 1 C5.37097383 -0.49821059 7.20442119 -1 11 -1 C11 0.32 11 1.64 11 3 C11.66 1.68 12.32 0.36 13 -1 C13.66 -1 14.32 -1 15 -1 C16.125 5.75 16.125 5.75 15 8 C15.99 7.67 16.98 7.34 18 7 C18.66 7 19.32 7 20 7 C20.33 4.69 20.66 2.38 21 0 C22.12148437 0.01740234 22.12148437 0.01740234 23.265625 0.03515625 C24.25046875 0.04417969 25.2353125 0.05320313 26.25 0.0625 C27.22453125 0.07410156 28.1990625 0.08570313 29.203125 0.09765625 C31.67221216 0.01144511 33.63483861 -0.36519478 36 -1 C38.625 -0.8125 38.625 -0.8125 41 0 C42.3125 2.0625 42.3125 2.0625 43 4 C42.505 2.515 42.505 2.515 42 1 C43.65614657 0.61781233 45.32457024 0.28604898 47 0 C47.495 0.495 47.495 0.495 48 1 C48.66 0.34 49.32 -0.32 50 -1 C53.5 -0.8125 53.5 -0.8125 57 0 C57.99 1.485 57.99 1.485 59 3 C58.01 3.33 57.02 3.66 56 4 C56.99 4.495 56.99 4.495 58 5 C58.625 7.0625 58.625 7.0625 59 9 C58.34 9 57.68 9 57 9 C57 9.66 57 10.32 57 11 C53.66666667 11 50.33333333 11 47 11 C46.34 11.33 45.68 11.66 45 12 C43.68 11.01 42.36 10.02 41 9 C39.02 9.99 39.02 9.99 37 11 C37 10.34 37 9.68 37 9 C36.34 9 35.68 9 35 9 C34.67 9.99 34.34 10.98 34 12 C33.505 11.01 33.505 11.01 33 10 C32.030625 10.33 31.06125 10.66 30.0625 11 C24.13638759 12.69489219 17.95626862 12.53710158 12 11 C12.33 8.69 12.66 6.38 13 4 C12.34 4 11.68 4 11 4 C11.33 4.99 11.66 5.98 12 7 C11.5625 9.6875 11.5625 9.6875 11 12 C9.68 11.01 8.36 10.02 7 9 C6.34 9.66 5.68 10.32 5 11 C2.5625 11.75 2.5625 11.75 0 12 C-0.99 11.34 -1.98 10.68 -3 10 C-5.00838196 10.64097297 -7.00827818 11.30899447 -9 12 C-10.32 11.67 -11.64 11.34 -13 11 C-13.33 7.37 -13.66 3.74 -14 0 C-8.97703996 -1.13016601 -5.02125926 -0.77916092 0 0 Z M24 3 C23.67 3.99 23.34 4.98 23 6 C23.33 6.66 23.66 7.32 24 8 C25.97536745 7.65213292 25.97536745 7.65213292 28 7 C28.33 6.34 28.66 5.68 29 5 C27.68 5 26.36 5 25 5 C24.67 4.34 24.34 3.68 24 3 Z M35 3 C35 4.32 35 5.64 35 7 C35.66 7 36.32 7 37 7 C37 5.68 37 4.36 37 3 C36.34 3 35.68 3 35 3 Z M52 5 C51.34 5.66 50.68 6.32 50 7 C52.475 7.495 52.475 7.495 55 8 C54.67 7.01 54.34 6.02 54 5 C53.34 5 52.68 5 52 5 Z " fill="#1F2454" transform="translate(86,216)"/>
<path d="M0 0 C1.3518615 -0.00591408 1.3518615 -0.00591408 2.73103333 -0.01194763 C5.70992628 -0.01866017 8.68728671 0.01051034 11.66601562 0.04077148 C13.73579613 0.04502157 15.8055814 0.04735016 17.87536621 0.0478363 C22.21319173 0.05400379 26.55050131 0.07671379 30.88818359 0.11230469 C36.45019115 0.1575772 42.01173116 0.17233051 47.57390594 0.1760416 C51.84784564 0.18046945 56.12168706 0.19577203 60.39558411 0.21491814 C62.44650972 0.22380147 64.49744581 0.23053093 66.54838562 0.23507881 C69.41394687 0.24411707 72.27908465 0.26650458 75.14453125 0.29296875 C75.99348465 0.29363342 76.84243805 0.2942981 77.71711731 0.29498291 C84.81754891 0.3855283 84.81754891 0.3855283 88.07226562 2.59936523 C88.07226562 3.25936523 88.07226562 3.91936523 88.07226562 4.59936523 C89.06226563 4.92936523 90.05226563 5.25936523 91.07226562 5.59936523 C89.15976562 16.12936523 89.15976562 16.12936523 86.07226562 18.59936523 C83.36831402 19.22047095 80.86032179 19.41654188 78.07226562 19.59936523 C79.06226563 18.11436523 79.06226563 18.11436523 80.07226562 16.59936523 C80.89726562 16.45499023 81.72226563 16.31061523 82.57226562 16.16186523 C85.15767628 15.85827116 85.15767628 15.85827116 86.38476562 13.91186523 C87.2571918 10.97734081 87.40312758 8.6432952 87.07226562 5.59936523 C83.13936085 2.97742872 79.76110884 3.29200358 75.19458008 3.28051758 C74.28705994 3.27047195 73.37953979 3.26042633 72.44451904 3.25007629 C69.44153483 3.21915821 66.43864011 3.20218518 63.43554688 3.18530273 C61.35474371 3.16659803 59.27394817 3.14702515 57.19316101 3.12661743 C51.71382138 3.07521658 46.23445714 3.03563342 40.75500488 2.99847412 C35.16473258 2.95848431 29.57456337 2.90736908 23.984375 2.85717773 C13.01374421 2.76032428 2.04305532 2.67594965 -8.92773438 2.59936523 C-9.11335938 3.89874023 -9.29898438 5.19811523 -9.49023438 6.53686523 C-9.59464844 7.26776367 -9.6990625 7.99866211 -9.80664062 8.75170898 C-9.84660156 9.36143555 -9.8865625 9.97116211 -9.92773438 10.59936523 C-8.12752533 12.39957427 -5.38340926 11.81502054 -2.95117188 11.88061523 C-1.72269531 11.91799805 -0.49421875 11.95538086 0.77148438 11.99389648 C2.71474609 12.04610352 2.71474609 12.04610352 4.69726562 12.09936523 C7.2312208 12.16868316 9.76508324 12.24149521 12.29882812 12.31811523 C13.42885254 12.3484082 14.55887695 12.37870117 15.72314453 12.40991211 C23.01152749 12.82220145 27.689576 13.66406799 33.07226562 18.59936523 C38.1537682 25.08266162 38.32747078 32.1530893 37.55664062 39.98608398 C37.04384946 42.75267501 36.29639972 45.06682694 35.07226562 47.59936523 C34.08226562 48.09436523 34.08226562 48.09436523 33.07226562 48.59936523 C32.41226563 49.58936523 31.75226563 50.57936523 31.07226562 51.59936523 C26.24568527 56.5722056 21.1701634 56.52851095 14.57125854 56.64260864 C11.90190096 56.62017279 9.23663911 56.55702425 6.56835938 56.47827148 C5.60446793 56.45466049 4.64057648 56.4310495 3.6474762 56.40672302 C0.60139511 56.33080943 -2.44438382 56.24647889 -5.49023438 56.16186523 C-7.56899616 56.10857196 -9.64777222 56.05583221 -11.7265625 56.00366211 C-16.79380719 55.87529353 -21.8607987 55.73938144 -26.92773438 55.59936523 C-26.92773438 54.27936523 -26.92773438 52.95936523 -26.92773438 51.59936523 C-26.26773438 51.59936523 -25.60773438 51.59936523 -24.92773438 51.59936523 C-24.92773438 52.25936523 -24.92773438 52.91936523 -24.92773438 53.59936523 C-18.54105347 53.53201775 -12.15496808 53.44207769 -5.76879883 53.33691406 C-3.59927464 53.30379526 -1.429667 53.27572331 0.73999023 53.25292969 C3.87063951 53.21914312 7.00053289 53.16681545 10.13085938 53.11108398 C11.09060165 53.10469406 12.05034393 53.09830414 13.03916931 53.09172058 C18.8851548 52.96597948 24.90040976 52.58983018 30.07226562 49.59936523 C31.29555795 47.67796676 31.29555795 47.67796676 32.07226562 45.59936523 C32.43707031 44.82463867 32.801875 44.04991211 33.17773438 43.25170898 C35.23682928 37.1463577 34.87058398 30.03633704 32.88476562 23.97436523 C30.87970401 21.34704312 28.95447266 20.15731498 26.07226562 18.59936523 C26.07226562 17.93936523 26.07226562 17.27936523 26.07226562 16.59936523 C25.12351563 16.64061523 24.17476562 16.68186523 23.19726562 16.72436523 C20.07226562 16.59936523 20.07226562 16.59936523 18.07226562 14.59936523 C15.20514226 14.3704302 15.20514226 14.3704302 11.85742188 14.50952148 C9.9924707 14.53949219 9.9924707 14.53949219 8.08984375 14.57006836 C5.4569355 14.63117783 2.82411664 14.69627058 0.19140625 14.76538086 C-1.05318359 14.78407227 -2.29777344 14.80276367 -3.58007812 14.82202148 C-5.29698853 14.8646814 -5.29698853 14.8646814 -7.04858398 14.90820312 C-9.92773438 14.59936523 -9.92773438 14.59936523 -11.79711914 13.26513672 C-13.60021962 10.60857128 -13.36555528 8.72665738 -12.92773438 5.59936523 C-9.65400189 -0.32232511 -6.16167709 -0.10766681 0 0 Z " fill="#212A68" transform="translate(97.927734375,90.400634765625)"/>
<path d="M0 0 C2.05498806 -0.00134932 4.1099758 -0.00329207 6.16496277 -0.00579834 C10.45237291 -0.00873373 14.73969926 -0.00450098 19.02709961 0.00488281 C24.51581087 0.01631253 30.00432727 0.00968559 35.4930315 -0.00226212 C39.72840339 -0.00949286 43.96372912 -0.00718781 48.1991024 -0.00200653 C50.22326366 -0.00067527 52.24742915 -0.00229937 54.27158546 -0.00696564 C57.09759248 -0.0120548 59.92328402 -0.0042886 62.74926758 0.00683594 C63.58003311 0.00278748 64.41079865 -0.00126099 65.26673889 -0.00543213 C69.83492028 0.02781605 73.49090262 0.52727376 77.79296875 2.265625 C75.79296875 4.265625 75.79296875 4.265625 73.86019707 4.51172066 C73.06561152 4.50987707 72.27102596 4.50803349 71.45236206 4.50613403 C70.54088409 4.50888336 69.62940613 4.51163269 68.69030762 4.51446533 C67.68761841 4.50727478 66.6849292 4.50008423 65.65185547 4.49267578 C64.5981778 4.49296783 63.54450012 4.49325989 62.45889282 4.49356079 C58.96339791 4.49216338 55.46811409 4.47658276 51.97265625 4.4609375 C49.5541292 4.45720883 47.13560064 4.45436117 44.71707153 4.45236206 C38.34165296 4.44471408 31.96632505 4.42505559 25.59094238 4.4029541 C19.08928657 4.38252073 12.58761615 4.37336572 6.0859375 4.36328125 C-6.67842417 4.34181081 -19.4427229 4.30804356 -32.20703125 4.265625 C-32.20703125 4.925625 -32.20703125 5.585625 -32.20703125 6.265625 C-32.84640625 6.74 -33.48578125 7.214375 -34.14453125 7.703125 C-36.49076088 9.1747615 -36.49076088 9.1747615 -37.20703125 12.265625 C-38.19703125 12.760625 -38.19703125 12.760625 -39.20703125 13.265625 C-41.32133466 19.5302277 -41.7579197 25.1675671 -39.2578125 31.32421875 C-36.64574349 36.15023472 -33.31949383 38.60875387 -28.20703125 40.265625 C-24.98537887 40.59728622 -24.98537887 40.59728622 -21.515625 40.609375 C-20.24138672 40.63902344 -18.96714844 40.66867188 -17.65429688 40.69921875 C-15.64431752 40.73414924 -13.63430208 40.7657857 -11.62426758 40.79736328 C-9.67123876 40.8311964 -7.71841724 40.87639224 -5.765625 40.921875 C-4.60345459 40.94056641 -3.44128418 40.95925781 -2.24389648 40.97851562 C0.67814862 41.25476975 2.37168072 41.64880983 4.79296875 43.265625 C6.30515545 46.28999839 5.96560244 48.92804034 5.79296875 52.265625 C5.13296875 53.585625 4.47296875 54.905625 3.79296875 56.265625 C-9.73703125 56.265625 -23.26703125 56.265625 -37.20703125 56.265625 C-38.19703125 59.235625 -39.18703125 62.205625 -40.20703125 65.265625 C-41.19703125 64.935625 -42.18703125 64.605625 -43.20703125 64.265625 C-42.71203125 63.3375 -42.21703125 62.409375 -41.70703125 61.453125 C-39.99413273 58.40034984 -39.99413273 58.40034984 -40.20703125 55.265625 C-35.33054117 53.31637793 -30.92910581 52.99958833 -25.74609375 53.0703125 C-24.95552582 53.0731424 -24.16495789 53.07597229 -23.35043335 53.07888794 C-20.84414041 53.09001545 -18.3382148 53.11510574 -15.83203125 53.140625 C-14.12500519 53.15066442 -12.41797348 53.15978859 -10.7109375 53.16796875 C-6.54282885 53.18993037 -2.37499217 53.22440829 1.79296875 53.265625 C2.51553704 48.78428926 2.51553704 48.78428926 2.79296875 44.265625 C1.57222656 44.27722656 0.35148437 44.28882813 -0.90625 44.30078125 C-31.56072254 44.50678829 -31.56072254 44.50678829 -37.45703125 39.265625 C-38.03453125 38.605625 -38.61203125 37.945625 -39.20703125 37.265625 C-39.86703125 36.605625 -40.52703125 35.945625 -41.20703125 35.265625 C-43.52217463 30.54273251 -44.66737902 26.55421689 -45.20703125 21.265625 C-44.54703125 21.265625 -43.88703125 21.265625 -43.20703125 21.265625 C-43.24828125 20.193125 -43.28953125 19.120625 -43.33203125 18.015625 C-43.21844875 14.60815015 -42.99429761 13.05822869 -41.20703125 10.265625 C-40.54703125 10.265625 -39.88703125 10.265625 -39.20703125 10.265625 C-39.16578125 9.688125 -39.12453125 9.110625 -39.08203125 8.515625 C-37.74856807 5.08671967 -35.43489027 3.71960045 -32.20703125 2.265625 C-21.89944156 -0.86174307 -10.64397241 -0.0246797 0 0 Z " fill="#222A6F" transform="translate(114.20703125,75.734375)"/>
<path d="M0 0 C2.0625 1.5 2.0625 1.5 4 4 C4.05928384 6.82406647 3.55954815 9.20225927 3 12 C2.34 12 1.68 12 1 12 C0.67 12.99 0.34 13.98 0 15 C0 14.34 0 13.68 0 13 C-0.65226562 13.08378906 -1.30453125 13.16757813 -1.9765625 13.25390625 C-7.64647242 13.91455947 -12.50966969 14.19980105 -18 12.3125 C-20.98673942 11.84582197 -23.23076255 12.93006735 -26 14 C-26.66 13.34 -27.32 12.68 -28 12 C-28.99 12.33 -29.98 12.66 -31 13 C-31.99 12.67 -32.98 12.34 -34 12 C-34.5775 12.309375 -35.155 12.61875 -35.75 12.9375 C-38.89910224 14.42457606 -41.56306912 14.1909406 -45 14 C-45.66 13.67 -46.32 13.34 -47 13 C-48.26229508 8.52459016 -48.26229508 8.52459016 -47 6 C-47.99 6.33 -48.98 6.66 -50 7 C-49.67 8.65 -49.34 10.3 -49 12 C-50.65 12.33 -52.3 12.66 -54 13 C-53.979375 12.05125 -53.95875 11.1025 -53.9375 10.125 C-53.77448174 7.09333717 -53.77448174 7.09333717 -55 5 C-55.66 4.67 -56.32 4.34 -57 4 C-57 3.34 -57 2.68 -57 2 C-55.04707031 2.01740234 -55.04707031 2.01740234 -53.0546875 2.03515625 C-51.32812644 2.04453973 -49.60156382 2.05363934 -47.875 2.0625 C-47.0190625 2.07087891 -46.163125 2.07925781 -45.28125 2.08789062 C-40.71085165 2.10546908 -36.51459326 1.77934658 -32 1 C-30.65863633 1.65035814 -29.32467746 2.3162955 -28 3 C-25.50176994 2.68772124 -23.35410142 2.13278803 -21 1.25 C-17.99553163 0.87444145 -16.4083457 2.32753771 -14 4 C-13.67 3.34 -13.34 2.68 -13 2 C-11.68 2.66 -10.36 3.32 -9 4 C-9 5.98 -9 7.96 -9 10 C-7.68 9.34 -6.36 8.68 -5 8 C-5.66 7.34 -6.32 6.68 -7 6 C-5.68 4.35 -4.36 2.7 -3 1 C-2.01 1.33 -1.02 1.66 0 2 C0 1.34 0 0.68 0 0 Z M-24 4 C-24 4.99 -24 5.98 -24 7 C-23.01 6.67 -22.02 6.34 -21 6 C-21.33 5.34 -21.66 4.68 -22 4 C-22.66 4 -23.32 4 -24 4 Z M-3 5 C-1.515 5.99 -1.515 5.99 0 7 C0.66 6.67 1.32 6.34 2 6 C0.35 5.67 -1.3 5.34 -3 5 Z M-25 7 C-25 7.66 -25 8.32 -25 9 C-24.34 8.67 -23.68 8.34 -23 8 C-23.66 7.67 -24.32 7.34 -25 7 Z M-39 11 C-38 13 -38 13 -38 13 Z " fill="#1D2250" transform="translate(227,214)"/>
<path d="M0 0 C0.66 0 1.32 0 2 0 C2.50336767 1.62395997 3.00258976 3.24920541 3.5 4.875 C3.7784375 5.77992187 4.056875 6.68484375 4.34375 7.6171875 C5 10 5 10 5 12 C8.63 12 12.26 12 16 12 C16 12.99 16 13.98 16 15 C15.195625 15.61875 14.39125 16.2375 13.5625 16.875 C10.8791442 18.74412503 10.8791442 18.74412503 10.125 21.3125 C9.96992042 24.64671104 10.42109388 27.71953196 11 31 C9.02 30.34 7.04 29.68 5 29 C5 28.34 5 27.68 5 27 C1.22684928 26.64900923 -0.48542488 26.63244634 -3.625 28.875 C-4.40875 29.57625 -5.1925 30.2775 -6 31 C-7.31138904 31.70885894 -8.63777017 32.39456452 -10 33 C-10 31.02 -10 29.04 -10 27 C-9.34 27 -8.68 27 -8 27 C-8.144375 25.741875 -8.28875 24.48375 -8.4375 23.1875 C-8.51871094 22.47980469 -8.59992188 21.77210937 -8.68359375 21.04296875 C-8.97170735 18.80603607 -8.97170735 18.80603607 -10 16 C-11.32796291 15.64587656 -12.66216607 15.31478446 -14 15 C-14.99 14.01 -15.98 13.02 -17 12 C-12.38 12 -7.76 12 -3 12 C-2.690625 10.576875 -2.38125 9.15375 -2.0625 7.6875 C-1.48800637 5.04482928 -0.85697694 2.57093082 0 0 Z " fill="#2C358C" transform="translate(150,28)"/>
<path d="M0 0 C0.33 0.99 0.66 1.98 1 3 C1.99 3.66 2.98 4.32 4 5 C3.67 8.3 3.34 11.6 3 15 C2.34 15 1.68 15 1 15 C0.773125 15.61875 0.54625 16.2375 0.3125 16.875 C-1.44114371 19.71423268 -2.80863187 20.12962687 -6 21 C-10.43008104 21.37702817 -13.92366853 20.80116972 -18 19 C-18.33 18.01 -18.66 17.02 -19 16 C-19.66 16 -20.32 16 -21 16 C-22.47540984 8.86885246 -22.47540984 8.86885246 -20.1875 4.6875 C-19.465625 3.800625 -18.74375 2.91375 -18 2 C-17.34 1.01 -16.68 0.02 -16 -1 C-10.46543658 -2.84485447 -5.30120992 -2.39816639 0 0 Z M-13 5 C-13.68493373 7.85778033 -13.68493373 7.85778033 -14 11 C-12.33045181 14.22404978 -12.33045181 14.22404978 -9.375 14.6875 C-8.199375 14.8421875 -8.199375 14.8421875 -7 15 C-6.01 12.69 -5.02 10.38 -4 8 C-4.66 8 -5.32 8 -6 8 C-6 7.34 -6 6.68 -6 6 C-9.26085939 4.02948211 -9.26085939 4.02948211 -13 5 Z " fill="#2D3480" transform="translate(211,188)"/>
<path d="M0 0 C1.22589844 -0.01417969 2.45179687 -0.02835938 3.71484375 -0.04296875 C6.81893812 0.17073203 8.47612551 0.54751818 11.0625 2.1875 C10.0725 2.8475 9.0825 3.5075 8.0625 4.1875 C8.8968457 4.39842285 9.73119141 4.6093457 10.59082031 4.82666016 C14.49920113 5.81746426 18.40624914 6.81333643 22.3125 7.8125 C23.01989319 7.99324066 23.72728638 8.17398132 24.45611572 8.36019897 C33.01472543 10.55251809 41.50601381 12.85328373 49.9375 15.5 C75.96255896 23.52328328 101.9954477 23.66837838 127.0625 12.1875 C129.07079187 10.86668905 131.07286758 9.53625521 133.0625 8.1875 C133.7225 8.1875 134.3825 8.1875 135.0625 8.1875 C135.0625 7.5275 135.0625 6.8675 135.0625 6.1875 C136.3825 5.8575 137.7025 5.5275 139.0625 5.1875 C139.3925 5.8475 139.7225 6.5075 140.0625 7.1875 C127.2703657 19.9796343 104.46518439 24.54895237 87.0625 24.625 C77.43626296 24.52328543 68.40890741 23.58122741 59.0625 21.1875 C57.86439697 20.88223389 57.86439697 20.88223389 56.64208984 20.57080078 C52.49916635 19.50493741 48.36730924 18.40607417 44.2421875 17.2734375 C40.87158042 16.36415037 37.52187161 15.68485375 34.0625 15.1875 C34.0625 14.5275 34.0625 13.8675 34.0625 13.1875 C32.93070313 13.07148438 31.79890625 12.95546875 30.6328125 12.8359375 C25.93680937 12.247647 21.48957653 11.07966933 16.9375 9.8125 C9.90778054 7.90356756 2.89056444 6.21394703 -4.25 4.765625 C-6.9375 4.1875 -6.9375 4.1875 -9.9375 3.1875 C-9.9375 2.5275 -9.9375 1.8675 -9.9375 1.1875 C-6.46363568 0.02954523 -3.65980696 0.01920151 0 0 Z " fill="#1F286C" transform="translate(67.9375,149.8125)"/>
<path d="M0 0 C0.99 0.66 1.98 1.32 3 2 C2.34 2 1.68 2 1 2 C0.82984375 2.59167969 0.6596875 3.18335938 0.484375 3.79296875 C-2.50665575 13.54563818 -8.81214799 19.29522628 -16.546875 25.66796875 C-18.12779183 26.9579691 -18.12779183 26.9579691 -19 29 C-28.95580237 35.32401239 -39.62924764 39.14822984 -51 42 C-51.65742188 42.20109375 -52.31484375 42.4021875 -52.9921875 42.609375 C-55.52847791 43.10281671 -57.68896832 42.86578007 -60.25 42.5625 C-61.14203125 42.46066406 -62.0340625 42.35882813 -62.953125 42.25390625 C-63.62859375 42.17011719 -64.3040625 42.08632812 -65 42 C-65 41.34 -65 40.68 -65 40 C-61.86626648 38.85351213 -59.00369138 38.00048754 -55.6875 37.5625 C-51.89284033 36.98365361 -48.60641979 35.93311492 -45.015625 34.62109375 C-43 34 -43 34 -40 34 C-39.67 33.34 -39.34 32.68 -39 32 C-38.175 31.7525 -37.35 31.505 -36.5 31.25 C-31.77255367 29.56162631 -28.07220454 26.89286081 -24 24 C-23.31550781 23.53464844 -22.63101563 23.06929687 -21.92578125 22.58984375 C-17.24169741 19.28613825 -13.56593774 15.51360436 -9.859375 11.1484375 C-8 9 -8 9 -5.828125 6.9140625 C-3.77547621 5.03736371 -3.77547621 5.03736371 -3 2 C-2.01 1.34 -1.02 0.68 0 0 Z " fill="#232B68" transform="translate(233,138)"/>
<path d="M0 0 C1.89510699 -0.08160748 3.79124504 -0.13946459 5.6875 -0.1875 C6.74324219 -0.22230469 7.79898438 -0.25710937 8.88671875 -0.29296875 C12.44722455 0.04208512 14.20036824 0.79853825 17 3 C19.1149482 6.41035398 20.41875998 10.16080618 19.51171875 14.14453125 C18.6875 16.0625 18.6875 16.0625 17 19 C17.66 19.33 18.32 19.66 19 20 C19.33 20.66 19.66 21.32 20 22 C16.75 22.8125 16.75 22.8125 13 23 C10.5625 20.5625 10.5625 20.5625 9 18 C8.34 18.33 7.68 18.66 7 19 C6.34444881 21.52733235 6.34444881 21.52733235 6 24 C4.02 23.34 2.04 22.68 0 22 C-1.2003299 15.54822678 -2.98206452 5.96412904 0 0 Z M7 6 C7.33 7.65 7.66 9.3 8 11 C9.32 10.67 10.64 10.34 12 10 C12 9.01 12 8.02 12 7 C10.35 6.67 8.7 6.34 7 6 Z " fill="#2E3583" transform="translate(163,186)"/>
<path d="M0 0 C0.33 0.66 0.66 1.32 1 2 C3.12576782 2.46651207 3.12576782 2.46651207 5.5625 2.625 C6.38878906 2.69976562 7.21507812 2.77453125 8.06640625 2.8515625 C8.70449219 2.90054688 9.34257812 2.94953125 10 3 C11.02653826 6.76673312 11.28495693 10.08184221 11 14 C9.5 15.9375 9.5 15.9375 8 17 C8.7734375 17.86625 8.7734375 17.86625 9.5625 18.75 C11 21 11 21 10.6875 23.25 C10.460625 23.8275 10.23375 24.405 10 25 C10 24.34 10 23.68 10 23 C9.34 23 8.68 23 8 23 C7.67 23.66 7.34 24.32 7 25 C6.236875 24.21625 5.47375 23.4325 4.6875 22.625 C2.09108195 19.92742283 2.09108195 19.92742283 -1 18 C-1 19.98 -1 21.96 -1 24 C-4 25 -4 25 -6.66796875 24.19921875 C-9.42463733 21.59954637 -9.36283019 20.97992395 -9.48828125 17.33203125 C-9.45505965 15.49155452 -9.3954486 13.65140668 -9.3125 11.8125 C-9.28994141 10.87212891 -9.26738281 9.93175781 -9.24414062 8.96289062 C-9.18519227 6.64032527 -9.10297785 4.32096224 -9 2 C-6.94921875 1.77213542 -4.8984375 1.54427083 -2.84765625 1.31640625 C-0.98859771 1.18113386 -0.98859771 1.18113386 0 0 Z M0 7 C-0.99 8.485 -0.99 8.485 -2 10 C0.475 10.99 0.475 10.99 3 12 C3.33 10.68 3.66 9.36 4 8 C2.68 7.67 1.36 7.34 0 7 Z " fill="#2A2E74" transform="translate(126,185)"/>
<path d="M0 0 C0.75410156 0.00451172 1.50820313 0.00902344 2.28515625 0.01367188 C4.14847127 0.02546501 6.01174555 0.04340058 7.875 0.0625 C8.205 1.3825 8.535 2.7025 8.875 4.0625 C7.225 5.3825 5.575 6.7025 3.875 8.0625 C4.535 8.3925 5.195 8.7225 5.875 9.0625 C6.5 11.125 6.5 11.125 6.875 13.0625 C0.25 15.0625 0.25 15.0625 -3.125 15.0625 C-3.125 15.7225 -3.125 16.3825 -3.125 17.0625 C-2.51011719 16.94390625 -1.89523437 16.8253125 -1.26171875 16.703125 C1.16141811 16.31665979 3.41993596 16.01461755 5.875 16.0625 C7.9375 18 7.9375 18 8.875 20.0625 C4.72043397 23.10605214 2.12702953 23.3127255 -2.9375 22.75 C-4.09894531 22.63011719 -5.26039063 22.51023438 -6.45703125 22.38671875 C-7.33746094 22.27972656 -8.21789062 22.17273438 -9.125 22.0625 C-9.91188445 19.28526075 -10.24449924 16.83639923 -10.22265625 13.953125 C-10.21943359 13.19902344 -10.21621094 12.44492188 -10.21289062 11.66796875 C-10.20451172 10.89066406 -10.19613281 10.11335937 -10.1875 9.3125 C-10.18298828 8.51972656 -10.17847656 7.72695312 -10.17382812 6.91015625 C-10.16208565 4.96090492 -10.14415146 3.01169262 -10.125 1.0625 C-6.93675432 -0.53162284 -3.49603338 -0.03924735 0 0 Z " fill="#1E286B" transform="translate(259.125,185.9375)"/>
<path d="M0 0 C3 2 3 2 3.75 4 C4 6 4 6 3 8 C1.35 8 -0.3 8 -2 8 C-0.5459375 8.8353125 -0.5459375 8.8353125 0.9375 9.6875 C4 12 4 12 5.0625 14.4375 C4.98193216 17.7407816 3.96402993 19.38129342 2 22 C-2.59543291 24.29771645 -9.17247654 23.24581251 -14 22 C-14.125 19.625 -14.125 19.625 -14 17 C-13.34 16.34 -12.68 15.68 -12 15 C-11.01 15 -10.02 15 -9 15 C-9 15.66 -9 16.32 -9 17 C-8.01 16.67 -7.02 16.34 -6 16 C-6.94875 15.5875 -7.8975 15.175 -8.875 14.75 C-12 13 -12 13 -13.4375 11.25 C-14.2491294 8.00348239 -13.62483991 5.24916753 -13 2 C-12.01 2 -11.02 2 -10 2 C-9.67 1.34 -9.34 0.68 -9 0 C-5.88109857 -1.55945072 -3.34501482 -0.64552918 0 0 Z " fill="#2E337C" transform="translate(236,186)"/>
<path d="M0 0 C0.33 0 0.66 0 1 0 C1.78579793 4.14923058 2.11854983 8.05293431 2.09765625 12.2734375 C2.09282227 14.00400391 2.09282227 14.00400391 2.08789062 15.76953125 C2.07951172 16.95933594 2.07113281 18.14914063 2.0625 19.375 C2.05798828 20.58800781 2.05347656 21.80101562 2.04882812 23.05078125 C2.03708366 26.03387545 2.01914943 29.01694414 2 32 C8.93 32.495 8.93 32.495 16 33 C16 25.08 16 17.16 16 9 C19.96 9 23.92 9 28 9 C29.11375 11.0728125 29.11375 11.0728125 30.25 13.1875 C32.23806118 16.76823765 34.39050537 19.83697621 37 23 C37.34804687 23.75925781 37.69609375 24.51851562 38.0546875 25.30078125 C39.47859363 28.14417145 40.54498149 29.95196317 43 32 C48.10875559 32.79338492 52.87505353 32.52814334 58 32 C57.505 30.515 57.505 30.515 57 29 C56.34 29 55.68 29 55 29 C54.18432826 27.56429734 53.37257907 26.12636566 52.5625 24.6875 C52.11003906 23.88699219 51.65757812 23.08648437 51.19140625 22.26171875 C50 20 50 20 49 17 C48.34 16.690625 47.68 16.38125 47 16.0625 C45 15 45 15 44.25 12.875 C44.1675 12.25625 44.085 11.6375 44 11 C44.66 10.67 45.32 10.34 46 10 C49.4240257 13.4240257 55 19.07775606 55 24 C55.66 24 56.32 24 57 24 C59.44045073 27.45730521 60.78065514 30.96678237 62 35 C56.69311238 37.65344381 47.77969804 37.2243334 42 36 C38.72127314 33.46812369 37.54988664 30.75956439 36 27 C35.46246094 26.28328125 34.92492187 25.5665625 34.37109375 24.828125 C33 23 33 23 33 21 C32.34 20.67 31.68 20.34 31 20 C28.67510478 17.32284793 27.12775871 15.38327612 26 12 C23.69 12 21.38 12 19 12 C19 19.59 19 27.18 19 35 C15.36329696 36.21223435 12.19717973 35.98475767 8.4375 35.75 C7.75236328 35.72292969 7.06722656 35.69585937 6.36132812 35.66796875 C4.37109375 35.546875 4.37109375 35.546875 1 35 C-1.16047087 31.7592937 -1.21892634 31.17498148 -0.9765625 27.5 C-0.92491943 26.61723389 -0.87327637 25.73446777 -0.82006836 24.82495117 C-0.7556958 23.89271729 -0.69132324 22.9604834 -0.625 22 C-0.51238039 20.10037458 -0.40168591 18.200634 -0.29296875 16.30078125 C-0.21248291 14.93107178 -0.21248291 14.93107178 -0.13037109 13.53369141 C0.10178859 9.02179397 0.09517615 4.51557971 0 0 Z " fill="#21276D" transform="translate(139,111)"/>
<path d="M0 0 C0.33 2.31 0.66 4.62 1 7 C-1.86177057 8.43088528 -3.93375773 7.59991697 -7 7 C-6.34 7.33 -5.68 7.66 -5 8 C1.4109589 11.61643836 1.4109589 11.61643836 3 14 C2.87163956 17.08065062 2.62395898 19.16935461 0.75 21.6640625 C-2.63410557 24.24746452 -6.95078912 23.48435537 -11 23 C-14.0625 21.6875 -14.0625 21.6875 -16 20 C-16.33 19.01 -16.66 18.02 -17 17 C-16.01 16.67 -15.02 16.34 -14 16 C-13.67 15.34 -13.34 14.68 -13 14 C-13 14.66 -13 15.32 -13 16 C-12.67 15.67 -12.34 15.34 -12 15 C-12 14.34 -12 13.68 -12 13 C-12.66 13 -13.32 13 -14 13 C-16.4294516 9.3558226 -16.16179575 7.28758728 -16 3 C-10.62669111 -0.39366878 -6.13053511 -0.32712342 0 0 Z M-7 15 C-7.66 15.66 -8.32 16.32 -9 17 C-7.68 17 -6.36 17 -5 17 C-5 16.34 -5 15.68 -5 15 C-5.66 15 -6.32 15 -7 15 Z " fill="#2C3278" transform="translate(52,186)"/>
<path d="M0 0 C4.69128149 2.91620201 5.97305556 5.81227596 7.51953125 10.87890625 C8 13 8 13 8 16 C8.66 16.33 9.32 16.66 10 17 C10.72159424 18.64363134 11.39351421 20.31050386 12 22 C11.34 22.66 10.68 23.32 10 24 C4.25 22.25 4.25 22.25 2 20 C-0.41417872 19.41597867 -0.41417872 19.41597867 -3 20 C-5.33630748 22.39859044 -5.33630748 22.39859044 -7 25 C-8.98 24.01 -10.96 23.02 -13 22 C-9.21682961 12.45565642 -9.21682961 12.45565642 -7.3125 8.0625 C-5.96799289 5.0423878 -5.96799289 5.0423878 -5 2 C-2.4375 0.8125 -2.4375 0.8125 0 0 Z M-2 12 C-1 14 -1 14 -1 14 Z " fill="#22286A" transform="translate(98,185)"/>
<path d="M0 0 C2 1 2 1 3.03515625 3.8359375 C3.37417969 5.00382812 3.71320313 6.17171875 4.0625 7.375 C4.40410156 8.53773437 4.74570313 9.70046875 5.09765625 10.8984375 C5.39542969 11.92195313 5.69320312 12.94546875 6 14 C6.33 14.99 6.66 15.98 7 17 C6.96371877 20.67860121 6.57337506 24.33662251 6.25 28 C6.17523438 28.99128906 6.10046875 29.98257813 6.0234375 31.00390625 C5.26871407 39.7747073 3.36662979 47.86185492 0 56 C-0.66 56 -1.32 56 -2 56 C-2 56.66 -2 57.32 -2 58 C-2.99 57.67 -3.98 57.34 -5 57 C-4.67 56.34 -4.34 55.68 -4 55 C-4.99 54.67 -5.98 54.34 -7 54 C-6.525625 53.01 -6.05125 52.02 -5.5625 51 C-4.32799702 48.1733343 -3.7364828 45.69234209 -3.4375 42.625 C-3.2209375 40.830625 -3.2209375 40.830625 -3 39 C-2.01 38.505 -2.01 38.505 -1 38 C0.17792394 34.7704326 0.10174315 31.65343479 0.0625 28.24609375 C0.05476562 27.14458984 0.04703125 26.04308594 0.0390625 24.90820312 C0.02617187 23.76287109 0.01328125 22.61753906 0 21.4375 C-0.02548612 19.16541201 -0.04652689 16.89326853 -0.0625 14.62109375 C-0.07410156 13.6148999 -0.08570313 12.60870605 -0.09765625 11.57202148 C0 9 0 9 1 6 C-0.37168238 3.80961577 -0.37168238 3.80961577 -2 2 C-1.34 1.34 -0.68 0.68 0 0 Z " fill="#2D358C" transform="translate(227,74)"/>
<path d="M0 0 C2.78236378 3.99162188 2.08216556 8.07157657 1.75 12.6875 C1.6977124 13.49678955 1.6454248 14.3060791 1.59155273 15.13989258 C1.19991101 20.6058009 0.47462621 25.70869419 -1 31 C-1.33 32.2375 -1.66 33.475 -2 34.75 C-3.54653419 39.77623613 -5.60545422 44.31975142 -8 49 C-8.66 49 -9.32 49 -10 49 C-10.2475 50.093125 -10.495 51.18625 -10.75 52.3125 C-12.10589349 56.31238578 -12.64816117 56.79736305 -16 59 C-17.75933042 60.93476223 -19.36503177 62.95628972 -21 65 C-22.32 64.67 -23.64 64.34 -25 64 C-23.02 61.69 -21.04 59.38 -19 57 C-19.66 57 -20.32 57 -21 57 C-21.33 57.66 -21.66 58.32 -22 59 C-21.38722388 56.03824877 -20.74627478 54.61941217 -19 52 C-19.495 50.515 -19.495 50.515 -20 49 C-18.78515625 46.51953125 -18.78515625 46.51953125 -17.0625 43.8125 C-16.49660156 42.91144531 -15.93070313 42.01039063 -15.34765625 41.08203125 C-14.90292969 40.39496094 -14.45820313 39.70789063 -14 39 C-13.01 39.33 -12.02 39.66 -11 40 C-11 40.66 -11 41.32 -11 42 C-10.34 42.33 -9.68 42.66 -9 43 C-9 42.34 -9 41.68 -9 41 C-8.34 41 -7.68 41 -7 41 C-6.86577637 40.2793335 -6.73155273 39.55866699 -6.59326172 38.81616211 C-6.02790013 36.1324395 -5.29680985 33.56669217 -4.5078125 30.94140625 C-2.85591482 24.96105494 -2.28260711 19.11154892 -1.875 12.9375 C-1.73007204 10.90469466 -1.58180824 8.87212349 -1.4296875 6.83984375 C-1.37022949 5.95675537 -1.31077148 5.07366699 -1.24951172 4.16381836 C-1 2 -1 2 0 0 Z " fill="#2C3589" transform="translate(234,89)"/>
<path d="M0 0 C0.68513672 -0.00386719 1.37027344 -0.00773438 2.07617188 -0.01171875 C7.1841133 -0.00169335 7.1841133 -0.00169335 9.4375 1.125 C9.4375 2.775 9.4375 4.425 9.4375 6.125 C7.4575 6.455 5.4775 6.785 3.4375 7.125 C3.4375 12.405 3.4375 17.685 3.4375 23.125 C1.4575 22.795 -0.5225 22.465 -2.5625 22.125 C-3.61226964 18.97569107 -3.66381595 16.73685544 -3.625 13.4375 C-3.61597656 12.44363281 -3.60695313 11.44976562 -3.59765625 10.42578125 C-3.58605469 9.66652344 -3.57445313 8.90726563 -3.5625 8.125 C-4.36042969 7.84914062 -5.15835938 7.57328125 -5.98046875 7.2890625 C-8.5625 6.125 -8.5625 6.125 -9.875 3.5 C-10.101875 2.71625 -10.32875 1.9325 -10.5625 1.125 C-6.98556178 -0.06731274 -3.72067447 -0.0211202 0 0 Z " fill="#2E3582" transform="translate(70.5625,185.875)"/>
<path d="M0 0 C2.7839183 1.39195915 2.97898997 3.15575779 4 6 C4.66 6 5.32 6 6 6 C6.66 4.35 7.32 2.7 8 1 C9.32 1.66 10.64 2.32 12 3 C12 3.66 12 4.32 12 5 C12.66 5 13.32 5 14 5 C14.33 3.68 14.66 2.36 15 1 C15.99 1 16.98 1 18 1 C20.92965912 3.92965912 21.94133569 6.680053 22.125 10.8125 C22.08375 11.534375 22.0425 12.25625 22 13 C20.783125 12.62875 19.56625 12.2575 18.3125 11.875 C14.56877603 10.91745781 12.45817559 11.05477623 9 13 C8.34 12.34 7.68 11.68 7 11 C6.01 11.495 6.01 11.495 5 12 C3 12 1 12 -1 12 C-1.02687279 10.18757948 -1.04633715 8.37504767 -1.0625 6.5625 C-1.07410156 5.55316406 -1.08570313 4.54382813 -1.09765625 3.50390625 C-1 1 -1 1 0 0 Z M1 8 C2 10 2 10 2 10 Z " fill="#212354" transform="translate(150,215)"/>
<path d="M0 0 C13.01639481 3.42536706 24.1792322 13.27603508 31.46484375 24.31640625 C36.71475957 33.49374002 39.1466091 41.88145254 39.125 52.4375 C39.12886719 54.32275391 39.12886719 54.32275391 39.1328125 56.24609375 C39.00243134 59.93127902 38.59062733 63.36717317 38 67 C37.01 66.67 36.02 66.34 35 66 C35.10828125 64.85724609 35.10828125 64.85724609 35.21875 63.69140625 C35.50897261 60.46267967 35.76038392 57.23285296 36 54 C36.06832031 53.23816406 36.13664062 52.47632813 36.20703125 51.69140625 C36.70544094 41.92626833 33.18305847 32.14480617 28 24 C28 23.34 28 22.68 28 22 C27.34 22 26.68 22 26 22 C25.896875 21.360625 25.79375 20.72125 25.6875 20.0625 C25.460625 19.381875 25.23375 18.70125 25 18 C24.01 17.67 23.02 17.34 22 17 C22 16.34 22 15.68 22 15 C21.43667969 14.73960938 20.87335938 14.47921875 20.29296875 14.2109375 C17.77466426 12.88099816 15.60394938 11.31499004 13.3125 9.625 C8.76179824 6.38609042 4.19573628 4.02056411 -1 2 C-0.67 1.34 -0.34 0.68 0 0 Z " fill="#1E286B" transform="translate(188,46)"/>
<path d="M0 0 C18.315 0.495 18.315 0.495 37 1 C36.67 1.66 36.34 2.32 36 3 C24.78 3 13.56 3 2 3 C2 13.89 2 24.78 2 36 C5.96 36 9.92 36 14 36 C14 29.07 14 22.14 14 15 C14.33 15 14.66 15 15 15 C15 22.26 15 29.52 15 37 C4.16015625 37.09765625 4.16015625 37.09765625 1 37 C0 36 0 36 -0.09765625 33.62670898 C-0.08605469 32.59360596 -0.07445312 31.56050293 -0.0625 30.49609375 C-0.05476562 29.36236328 -0.04703125 28.22863281 -0.0390625 27.06054688 C-0.01331561 24.67252285 0.01271923 22.2845019 0.0390625 19.89648438 C0.09892183 12.57045357 0.09892183 12.57045357 -0.5625 5.28515625 C-1 2 -1 2 0 0 Z " fill="#2B3178" transform="translate(140,107)"/>
<path d="M0 0 C0.66 0 1.32 0 2 0 C2 0.99 2 1.98 2 3 C1.34 3.33 0.68 3.66 0 4 C-0.66 4.99 -1.32 5.98 -2 7 C-6.82658036 11.97284037 -11.90210223 11.92914572 -18.50100708 12.04324341 C-21.17036467 12.02080755 -23.83562651 11.95765901 -26.50390625 11.87890625 C-27.4677977 11.85529526 -28.43168915 11.83168427 -29.42478943 11.80735779 C-32.47087051 11.7314442 -35.51664945 11.64711366 -38.5625 11.5625 C-40.64126179 11.50920672 -42.72003785 11.45646697 -44.79882812 11.40429688 C-49.86607281 11.27592829 -54.93306432 11.14001621 -60 11 C-60 9.68 -60 8.36 -60 7 C-59.34 7 -58.68 7 -58 7 C-58 7.66 -58 8.32 -58 9 C-51.61331909 8.93265251 -45.22723371 8.84271245 -38.84106445 8.73754883 C-36.67154027 8.70443002 -34.50193262 8.67635807 -32.33227539 8.65356445 C-29.20162611 8.61977788 -26.07173274 8.56745022 -22.94140625 8.51171875 C-21.98166397 8.50532883 -21.02192169 8.4989389 -20.03309631 8.49235535 C-14.18711083 8.36661425 -8.17185587 7.99046494 -3 5 C-1.79097123 3.01294208 -1.79097123 3.01294208 -1 1 C-0.67 0.67 -0.34 0.34 0 0 Z " fill="#182462" transform="translate(131,135)"/>
<path d="M0 0 C10.18987342 3.78481013 10.18987342 3.78481013 13 8 C12.87163956 11.08065062 12.62395898 13.16935461 10.75 15.6640625 C7.36589443 18.24746452 3.04921088 17.48435537 -1 17 C-4.0625 15.6875 -4.0625 15.6875 -6 14 C-6.33 13.01 -6.66 12.02 -7 11 C-6.01 10.67 -5.02 10.34 -4 10 C-3.67 9.34 -3.34 8.68 -3 8 C-3 8.66 -3 9.32 -3 10 C-2.67 9.67 -2.34 9.34 -2 9 C-2 8.34 -2 7.68 -2 7 C0.75 6.3125 0.75 6.3125 4 6 C6.375 7.4375 6.375 7.4375 8 9 C7.34 10.32 6.68 11.64 6 13 C6.66 13 7.32 13 8 13 C9.29633621 11.93354885 9.29633621 11.93354885 9.0625 9.4375 C9.041875 8.633125 9.02125 7.82875 9 7 C8.43410156 6.82984375 7.86820313 6.6596875 7.28515625 6.484375 C6.55167969 6.24203125 5.81820312 5.9996875 5.0625 5.75 C3.96615234 5.40195313 3.96615234 5.40195313 2.84765625 5.046875 C1 4 1 4 0.24609375 1.890625 C0.16488281 1.26671875 0.08367188 0.6428125 0 0 Z M3 9 C2.34 9.66 1.68 10.32 1 11 C2.32 11 3.64 11 5 11 C5 10.34 5 9.68 5 9 C4.34 9 3.68 9 3 9 Z " fill="#222868" transform="translate(42,192)"/>
<path d="M0 0 C5.73181921 2.76708514 8.25781148 5.29184711 10.96875 11.01953125 C13.15227083 17.33023729 13.3452259 23.68147916 10.8203125 29.91015625 C7.77130466 35.27356642 4.52517385 39.88226195 -1.5625 41.8125 C-3.99519663 41.99963051 -5.69821392 41.76726203 -8 41 C-5.67877973 39.83938987 -3.36008122 38.70670389 -1 37.625 C3.2487483 35.32359467 5.3756297 33.49848872 7.25 29 C8.63010808 23.11238297 9.40257397 16.2798653 6.984375 10.625 C5.74771114 8.65825747 4.42349165 6.83444014 3 5 C1.99490786 3.33639922 0.99230897 1.67125722 0 0 Z " fill="#21276D" transform="translate(192,79)"/>
<path d="M0 0 C2.328125 0.171875 2.328125 0.171875 5 1 C6.546875 3.328125 6.546875 3.328125 7.75 6.25 C8.15734375 7.20390625 8.5646875 8.1578125 8.984375 9.140625 C9.91658043 11.76514183 10.53964812 14.25790401 11 17 C10.34 17 9.68 17 9 17 C8.67 15.68 8.34 14.36 8 13 C4.7 13 1.4 13 -2 13 C-2 13.66 -2 14.32 -2 15 C-2.99 15.33 -3.98 15.66 -5 16 C-5.33 15.34 -5.66 14.68 -6 14 C-5.09176973 11.56442428 -4.13171929 9.23804483 -3.0625 6.875 C-2.77181641 6.21628906 -2.48113281 5.55757812 -2.18164062 4.87890625 C-1.46139802 3.24950495 -0.73158857 1.62433868 0 0 Z M1 8 C2 10 2 10 2 10 Z " fill="#2E347E" transform="translate(95,189)"/>
<path d="M0 0 C0.33 0 0.66 0 1 0 C1.78579793 4.14923058 2.11854983 8.05293431 2.09765625 12.2734375 C2.09282227 14.00400391 2.09282227 14.00400391 2.08789062 15.76953125 C2.07951172 16.95933594 2.07113281 18.14914063 2.0625 19.375 C2.05798828 20.58800781 2.05347656 21.80101562 2.04882812 23.05078125 C2.03708366 26.03387545 2.01914943 29.01694414 2 32 C8.93 32.495 8.93 32.495 16 33 C16 25.74 16 18.48 16 11 C16.66 11 17.32 11 18 11 C18.86963087 13.99706695 19.11763099 16.64956526 19.09765625 19.765625 C19.09443359 20.65507812 19.09121094 21.54453125 19.08789062 22.4609375 C19.07951172 23.38132813 19.07113281 24.30171875 19.0625 25.25 C19.05798828 26.18585938 19.05347656 27.12171875 19.04882812 28.0859375 C19.03706918 30.39069041 19.02063426 32.69531227 19 35 C15.36329696 36.21223435 12.19717973 35.98475767 8.4375 35.75 C7.75236328 35.72292969 7.06722656 35.69585937 6.36132812 35.66796875 C4.37109375 35.546875 4.37109375 35.546875 1 35 C-1.16047087 31.7592937 -1.21892634 31.17498148 -0.9765625 27.5 C-0.92491943 26.61723389 -0.87327637 25.73446777 -0.82006836 24.82495117 C-0.7556958 23.89271729 -0.69132324 22.9604834 -0.625 22 C-0.51238039 20.10037458 -0.40168591 18.200634 -0.29296875 16.30078125 C-0.21248291 14.93107178 -0.21248291 14.93107178 -0.13037109 13.53369141 C0.10178859 9.02179397 0.09517615 4.51557971 0 0 Z " fill="#171F5D" transform="translate(139,111)"/>
<path d="M0 0 C2.8125 -0.1875 2.8125 -0.1875 6 0 C7.46875 1.3515625 7.46875 1.3515625 9 3 C10.8293373 4.32009994 12.69553985 5.56784326 14.57421875 6.81640625 C15.04472656 7.20699219 15.51523438 7.59757812 16 8 C16 8.66 16 9.32 16 10 C17.32 10.33 18.64 10.66 20 11 C20.6875 12.8125 20.6875 12.8125 21 15 C19.51953125 16.63671875 19.51953125 16.63671875 18 18 C17.05125 17.154375 16.1025 16.30875 15.125 15.4375 C11.3448327 12.15309235 7.27151694 9.47465644 3.0390625 6.80859375 C0.57192203 4.62030632 0.29776222 3.22575735 0 0 Z " fill="#2E3589" transform="translate(197,46)"/>
<path d="M0 0 C2.78236378 3.99162188 2.08216556 8.07157657 1.75 12.6875 C1.6977124 13.49678955 1.6454248 14.3060791 1.59155273 15.13989258 C1.19991101 20.6058009 0.47462621 25.70869419 -1 31 C-1.33 32.2375 -1.66 33.475 -2 34.75 C-3.54653419 39.77623613 -5.60545422 44.31975142 -8 49 C-8.66 49 -9.32 49 -10 49 C-10.66 51.31 -11.32 53.62 -12 56 C-12.66 55.34 -13.32 54.68 -14 54 C-12.70326757 50.62969084 -11.23915449 47.4466123 -9.5625 44.25 C-3.26228734 31.64957468 -2.01314479 18.72908474 -1.24609375 4.765625 C-1 2 -1 2 0 0 Z " fill="#20266D" transform="translate(234,89)"/>
<path d="M0 0 C1.65 0 3.3 0 5 0 C5.061875 0.763125 5.12375 1.52625 5.1875 2.3125 C5.73936354 5.22436846 5.73936354 5.22436846 8.5 6.5 C11 8 11 8 12 10.375 C12 13.74301331 10.9998082 15.33358907 9 18 C4.40456709 20.29771645 -2.17247654 19.24581251 -7 18 C-7.125 15.625 -7.125 15.625 -7 13 C-6.34 12.34 -5.68 11.68 -5 11 C-4.01 11 -3.02 11 -2 11 C-2 11.66 -2 12.32 -2 13 C2.455 12.505 2.455 12.505 7 12 C6.67 12.66 6.34 13.32 6 14 C2.18015204 14.77811718 -0.26840331 15.24386556 -4 14 C-4 14.66 -4 15.32 -4 16 C-2.35 16 -0.7 16 1 16 C1 16.33 1 16.66 1 17 C2.65 17.33 4.3 17.66 6 18 C6.33 17.01 6.66 16.02 7 15 C7.66 15 8.32 15 9 15 C8.67 13.02 8.34 11.04 8 9 C7.01 9 6.02 9 5 9 C5 8.34 5 7.68 5 7 C3.35 6.67 1.7 6.34 0 6 C-1.125 2.25 -1.125 2.25 0 0 Z " fill="#1D2666" transform="translate(229,190)"/>
<path d="M0 0 C1.17829199 2.35658397 1.04414372 3.52573236 0.87890625 6.1328125 C0.83056641 6.93847656 0.78222656 7.74414062 0.73242188 8.57421875 C0.64831055 9.83685547 0.64831055 9.83685547 0.5625 11.125 C0.51029297 11.97449219 0.45808594 12.82398438 0.40429688 13.69921875 C0.27448622 15.79979124 0.1378826 17.89994191 0 20 C0.66 20 1.32 20 2 20 C2.33 18.35 2.66 16.7 3 15 C5.3125 14.8125 5.3125 14.8125 8 15 C9.6875 16.4375 9.6875 16.4375 11 18 C11.66 18.33 12.32 18.66 13 19 C13.33 18.01 13.66 17.02 14 16 C15.5625 17.75 15.5625 17.75 17 20 C16.6875 22.25 16.6875 22.25 16 24 C16 23.34 16 22.68 16 22 C15.34 22 14.68 22 14 22 C13.67 22.66 13.34 23.32 13 24 C12.236875 23.21625 11.47375 22.4325 10.6875 21.625 C8.09108195 18.92742283 8.09108195 18.92742283 5 17 C5 18.98 5 20.96 5 23 C2 24 2 24 -0.66796875 23.19921875 C-3.42463733 20.59954637 -3.36283019 19.97992395 -3.48828125 16.33203125 C-3.45505965 14.49155452 -3.3954486 12.65140668 -3.3125 10.8125 C-3.28994141 9.87212891 -3.26738281 8.93175781 -3.24414062 7.96289062 C-3.18519227 5.64032527 -3.10297785 3.32096224 -3 1 C-2.01 0.67 -1.02 0.34 0 0 Z " fill="#222A70" transform="translate(120,186)"/>
<path d="M0 0 C0.33 0.99 0.66 1.98 1 3 C1.99 3.66 2.98 4.32 4 5 C3.67 8.3 3.34 11.6 3 15 C2.01 14.67 1.02 14.34 0 14 C0.04125 12.9275 0.0825 11.855 0.125 10.75 C0.00713532 7.21405963 -0.08101908 5.83079484 -2 3 C-4.88720363 1.61991667 -7.81420249 1.15501364 -11 1 C-15.3699252 2.48011667 -15.3699252 2.48011667 -18 6 C-18.25491388 9.9086795 -18.23289019 12.70942498 -16 16 C-15.01 16.66 -14.02 17.32 -13 18 C-13.33 18.66 -13.66 19.32 -14 20 C-16.46800047 18.84826645 -18.04783565 17.95216435 -20 16 C-20.33 16 -20.66 16 -21 16 C-22.47540984 8.86885246 -22.47540984 8.86885246 -20.1875 4.6875 C-19.465625 3.800625 -18.74375 2.91375 -18 2 C-17.34 1.01 -16.68 0.02 -16 -1 C-10.46543658 -2.84485447 -5.30120992 -2.39816639 0 0 Z " fill="#1C2467" transform="translate(211,188)"/>
<path d="M0 0 C-0.66 0 -1.32 0 -2 0 C-2 0.66 -2 1.32 -2 2 C-2.66 2 -3.32 2 -4 2 C-4 3.98 -4 5.96 -4 8 C-3.34 8 -2.68 8 -2 8 C-2 8.66 -2 9.32 -2 10 C-0.02 9.67 1.96 9.34 4 9 C5.00217064 5.41672247 5.00217064 5.41672247 4 2 C4.66 1.34 5.32 0.68 6 0 C8 1 8 1 8.6875 3 C9.11389971 7.09343723 8.57491832 10.94019216 8 15 C7.01 15.33 6.02 15.66 5 16 C4.608125 15.34 4.21625 14.68 3.8125 14 C2.14583333 11.70833333 2.14583333 11.70833333 -0.6875 11.75 C-1.450625 11.8325 -2.21375 11.915 -3 12 C-3.33 13.32 -3.66 14.64 -4 16 C-4.66 16 -5.32 16 -6 16 C-6 10.72 -6 5.44 -6 0 C-3.50907189 -1.24546405 -2.58919267 -0.7767578 0 0 Z " fill="#2D3483" transform="translate(126,190)"/>
<path d="M0 0 C0.78503906 0.14824219 1.57007813 0.29648438 2.37890625 0.44921875 C4.4375 1.3125 4.4375 1.3125 5.71484375 3.39453125 C5.95332031 4.02746094 6.19179687 4.66039062 6.4375 5.3125 C6.1075 5.3125 5.7775 5.3125 5.4375 5.3125 C5.1075 7.6225 4.7775 9.9325 4.4375 12.3125 C4.1075 12.3125 3.7775 12.3125 3.4375 12.3125 C2.9734375 10.641875 2.9734375 10.641875 2.5 8.9375 C1.61423517 5.5179845 1.61423517 5.5179845 0.4375 3.3125 C-2.5325 3.3125 -5.5025 3.3125 -8.5625 3.3125 C-8.4754995 4.93850941 -8.3673219 6.56339678 -8.25 8.1875 C-8.19199219 9.09242188 -8.13398438 9.99734375 -8.07421875 10.9296875 C-7.7742961 13.67471601 -7.7742961 13.67471601 -4.5625 15.3125 C-4.5625 15.9725 -4.5625 16.6325 -4.5625 17.3125 C-6.875 17.125 -6.875 17.125 -9.5625 16.3125 C-11.77165841 13.64627433 -12.4939406 11.7238564 -13.0625 8.3125 C-12.38789127 4.26484764 -10.69504555 2.86224638 -7.5625 0.3125 C-4.38151772 -0.74782743 -3.19716272 -0.6583943 0 0 Z " fill="#293179" transform="translate(204.5625,188.6875)"/>
<path d="M0 0 C1.89510699 -0.08160748 3.79124504 -0.13946459 5.6875 -0.1875 C6.74324219 -0.22230469 7.79898438 -0.25710937 8.88671875 -0.29296875 C12.44988567 0.04233554 14.2040376 0.78775607 17 3 C18.65245423 5.83733298 19.47847793 8.76316191 20 12 C19.1875 15.0625 19.1875 15.0625 18 17 C17.01 16.34 16.02 15.68 15 15 C15.185625 13.906875 15.37125 12.81375 15.5625 11.6875 C16.2578068 8.06375867 16.2578068 8.06375867 15 5 C11.14854957 3.07427479 6.19956748 3.95116782 2 4 C2 8.29 2 12.58 2 17 C1.01 16.67 0.02 16.34 -1 16 C-1.02692484 13.70839681 -1.04636124 11.41670454 -1.0625 9.125 C-1.07410156 7.84882813 -1.08570313 6.57265625 -1.09765625 5.2578125 C-1 2 -1 2 0 0 Z " fill="#242C70" transform="translate(163,186)"/>
<path d="M0 0 C-0.66 0.99 -1.32 1.98 -2 3 C-2.87180908 2.83032715 -3.74361816 2.6606543 -4.6418457 2.48583984 C-7.82069788 2.02594047 -10.53684653 2.00508629 -13.73046875 2.2265625 C-14.78041016 2.2884375 -15.83035156 2.3503125 -16.91210938 2.4140625 C-19.10788577 2.55547207 -21.30321527 2.70398869 -23.49804688 2.859375 C-24.54412109 2.91867188 -25.59019531 2.97796875 -26.66796875 3.0390625 C-27.61953857 3.10303223 -28.5711084 3.16700195 -29.55151367 3.23291016 C-32 3 -32 3 -33.83325195 1.49755859 C-34.21827881 1.00336426 -34.60330566 0.50916992 -35 0 C-33.08385986 -1.91614014 -29.58998054 -1.2993387 -26.97265625 -1.38671875 C-26.26854111 -1.41224319 -25.56442596 -1.43776764 -24.838974 -1.46406555 C-23.34692057 -1.51615392 -21.85477191 -1.56557114 -20.36254883 -1.61254883 C-18.07514374 -1.68708798 -15.78873801 -1.77772836 -13.50195312 -1.86914062 C-12.05472041 -1.91765844 -10.60745513 -1.96521641 -9.16015625 -2.01171875 C-8.47365494 -2.04077805 -7.78715363 -2.06983734 -7.07984924 -2.09977722 C-2.22875789 -2.22875789 -2.22875789 -2.22875789 0 0 Z " fill="#1D2652" transform="translate(70,221)"/>
<path d="M0 0 C3.96 0 7.92 0 12 0 C12.33 0.66 12.66 1.32 13 2 C10.03 2 7.06 2 4 2 C4 3.98 4 5.96 4 8 C5.65 8 7.3 8 9 8 C9.33 8.66 9.66 9.32 10 10 C8.02 10 6.04 10 4 10 C4 10.66 4 11.32 4 12 C3.34 12 2.68 12 2 12 C2 12.99 2 13.98 2 15 C2.66 15 3.32 15 4 15 C4 15.66 4 16.32 4 17 C6.31 17 8.62 17 11 17 C11 17.33 11 17.66 11 18 C7.37 18 3.74 18 0 18 C0 12.06 0 6.12 0 0 Z " fill="#2D3480" transform="translate(252,188)"/>
<path d="M0 0 C1.15680267 0.00424484 1.15680267 0.00424484 2.3369751 0.00857544 C4.79251832 0.01974237 7.2476926 0.04484021 9.703125 0.0703125 C11.37108847 0.08034682 13.03905768 0.08947189 14.70703125 0.09765625 C18.78920397 0.11967025 22.871102 0.15417583 26.953125 0.1953125 C26.953125 1.1853125 26.953125 2.1753125 26.953125 3.1953125 C15.073125 3.1953125 3.193125 3.1953125 -9.046875 3.1953125 C-10.036875 6.1653125 -11.026875 9.1353125 -12.046875 12.1953125 C-13.036875 11.8653125 -14.026875 11.5353125 -15.046875 11.1953125 C-14.551875 10.2671875 -14.056875 9.3390625 -13.546875 8.3828125 C-11.83397648 5.33003734 -11.83397648 5.33003734 -12.046875 2.1953125 C-8.24405066 -0.31385698 -4.38525461 -0.06076634 0 0 Z " fill="#1D2562" transform="translate(86.046875,128.8046875)"/>
<path d="M0 0 C12.26601867 5.09155492 22.39936597 15.35472767 27.5 27.6015625 C29.26518442 32.32090303 30.86262857 37.08752338 32 42 C30.515 42.495 30.515 42.495 29 43 C28.86464844 42.36835937 28.72929687 41.73671875 28.58984375 41.0859375 C25.9333995 30.04658234 21.21557529 19.02885767 13 11 C12.01 10.67 11.02 10.34 10 10 C8.33333333 8.33333333 6.66666667 6.66666667 5 5 C4.071875 4.443125 3.14375 3.88625 2.1875 3.3125 C1.465625 2.879375 0.74375 2.44625 0 2 C0 1.34 0 0.68 0 0 Z " fill="#1E266C" transform="translate(203,46)"/>
<path d="M0 0 C-2 2 -2 2 -4.65795898 2.22705078 C-5.75954346 2.21657715 -6.86112793 2.20610352 -7.99609375 2.1953125 C-9.19427734 2.18886719 -10.39246094 2.18242187 -11.62695312 2.17578125 C-12.88443359 2.15902344 -14.14191406 2.14226562 -15.4375 2.125 C-17.31791992 2.11146484 -17.31791992 2.11146484 -19.23632812 2.09765625 C-21.56180558 2.08016206 -23.88725816 2.0585821 -26.21264648 2.03173828 C-28.14166828 2.00977342 -30.07085315 2 -32 2 C-32.66 1.67 -33.32 1.34 -34 1 C-34 0.34 -34 -0.32 -34 -1 C-29.47975725 -1.19217298 -24.95926059 -1.37090744 -20.43798828 -1.53710938 C-18.89943132 -1.59557259 -17.3610102 -1.65773085 -15.82275391 -1.72363281 C-13.61385835 -1.81762837 -11.40481787 -1.89840086 -9.1953125 -1.9765625 C-8.16085495 -2.02485703 -8.16085495 -2.02485703 -7.10549927 -2.0741272 C-2.22774341 -2.22774341 -2.22774341 -2.22774341 0 0 Z " fill="#131B48" transform="translate(267,221)"/>
<path d="M0 0 C1.22589844 -0.01417969 2.45179687 -0.02835938 3.71484375 -0.04296875 C6.81893812 0.17073203 8.47612551 0.54751818 11.0625 2.1875 C10.0725 2.8475 9.0825 3.5075 8.0625 4.1875 C9.7125 4.8475 11.3625 5.5075 13.0625 6.1875 C13.0625 6.5175 13.0625 6.8475 13.0625 7.1875 C6.37772569 7.64328007 0.47955509 5.93431471 -5.9375 4.1875 C-7.26992155 3.8505405 -8.6028654 3.5155844 -9.9375 3.1875 C-9.9375 2.5275 -9.9375 1.8675 -9.9375 1.1875 C-6.46363568 0.02954523 -3.65980696 0.01920151 0 0 Z " fill="#222963" transform="translate(67.9375,149.8125)"/>
<path d="M0 0 C0.33 0 0.66 0 1 0 C1 4.62 1 9.24 1 14 C1.66 14 2.32 14 3 14 C3 9.38 3 4.76 3 0 C4.32 0.33 5.64 0.66 7 1 C6.34 1 5.68 1 5 1 C5 6.28 5 11.56 5 17 C3.02 16.67 1.04 16.34 -1 16 C-1.92350727 13.22947819 -2.16329585 11.43311242 -2.1875 8.5625 C-2.20167969 7.80066406 -2.21585937 7.03882813 -2.23046875 6.25390625 C-1.97612666 3.76652685 -1.24017196 2.15191894 0 0 Z " fill="#1E286B" transform="translate(69,192)"/>
<path d="M0 0 C4.95 0 9.9 0 15 0 C15 0.33 15 0.66 15 1 C13.35 1 11.7 1 10 1 C10.33 3.97 10.66 6.94 11 10 C8 10 8 10 5 9 C4.67 8.01 4.34 7.02 4 6 C3.01 5.67 2.02 5.34 1 5 C0.67 6.32 0.34 7.64 0 9 C0 6.03 0 3.06 0 0 Z " fill="#1B1F47" transform="translate(181,217)"/>
<path d="M0 0 C2.1875 -0.3125 2.1875 -0.3125 5 0 C7.8125 2.5 7.8125 2.5 10 5 C10.33 3.68 10.66 2.36 11 1 C11.33 1.99 11.66 2.98 12 4 C12.66 4.33 13.32 4.66 14 5 C14.33 5.66 14.66 6.32 15 7 C11.75 7.8125 11.75 7.8125 8 8 C5.5625 5.5625 5.5625 5.5625 4 3 C3.01 3.495 3.01 3.495 2 4 C1.34444881 6.52733235 1.34444881 6.52733235 1 9 C-0.98 8.34 -2.96 7.68 -5 7 C-5 6.34 -5 5.68 -5 5 C-3.68 5 -2.36 5 -1 5 C-0.67 3.35 -0.34 1.7 0 0 Z " fill="#202669" transform="translate(168,201)"/>
<path d="M0 0 C3 2 3 2 3.75 4 C4 6 4 6 3 8 C1.35 7.67 -0.3 7.34 -2 7 C-1.01 5.68 -0.02 4.36 1 3 C0.34 3 -0.32 3 -1 3 C-1 2.34 -1 1.68 -1 1 C-4.3 2.32 -7.6 3.64 -11 5 C-10.67 7.64 -10.34 10.28 -10 13 C-10.66 13 -11.32 13 -12 13 C-13.98362069 10.08291076 -13.9876191 8.87619096 -13.625 5.25 C-13.41875 4.1775 -13.2125 3.105 -13 2 C-12.01 2 -11.02 2 -10 2 C-9.67 1.34 -9.34 0.68 -9 0 C-5.88109857 -1.55945072 -3.34501482 -0.64552918 0 0 Z " fill="#1D2662" transform="translate(236,186)"/>
<path d="M0 0 C2 1 2 1 4 4 C4 4.99 4 5.98 4 7 C5.65 6.34 7.3 5.68 9 5 C9 6.65 9 8.3 9 10 C8.34 10 7.68 10 7 10 C6.34 10.66 5.68 11.32 5 12 C3 12 1 12 -1 12 C-1.02687279 10.18757948 -1.04633715 8.37504767 -1.0625 6.5625 C-1.07410156 5.55316406 -1.08570313 4.54382813 -1.09765625 3.50390625 C-1 1 -1 1 0 0 Z M1 8 C2 10 2 10 2 10 Z " fill="#262A5A" transform="translate(150,215)"/>
<path d="M0 0 C2.95221637 1.07521852 5.29129478 2.36455534 8 4 C8 4.66 8 5.32 8 6 C4.89162665 5.55594666 2.04007811 5.01364361 -0.9375 4 C-4.28457619 2.90707716 -7.51018626 2.41877765 -11 2 C-11.33 2.99 -11.66 3.98 -12 5 C-12.66 5 -13.32 5 -14 5 C-14.495 5.495 -14.99 5.99 -15.5 6.5 C-15.995 6.995 -16.49 7.49 -17 8 C-17.66 8 -18.32 8 -19 8 C-15.9661506 -0.49477831 -7.80052714 -1.14422401 0 0 Z " fill="#1E276E" transform="translate(179,41)"/>
<path d="M0 0 C0.66 0 1.32 0 2 0 C2.33 1.98 2.66 3.96 3 6 C3.63808594 6.13277344 4.27617188 6.26554688 4.93359375 6.40234375 C6.17302734 6.66724609 6.17302734 6.66724609 7.4375 6.9375 C8.26121094 7.11152344 9.08492187 7.28554687 9.93359375 7.46484375 C12 8 12 8 13 9 C13.1875 11.4375 13.1875 11.4375 13 14 C11 16 11 16 8.3984375 16.1953125 C7.40070312 16.17210937 6.40296875 16.14890625 5.375 16.125 C3.87066406 16.09792969 3.87066406 16.09792969 2.3359375 16.0703125 C1.56507812 16.04710937 0.79421875 16.02390625 0 16 C-0.33 15.34 -0.66 14.68 -1 14 C2.3 14 5.6 14 9 14 C9 12.68 9 11.36 9 10 C8.05125 9.855625 7.1025 9.71125 6.125 9.5625 C3 9 3 9 1 8 C-1 5 -1 5 -0.625 2.3125 C-0.41875 1.549375 -0.2125 0.78625 0 0 Z " fill="#2F347E" transform="translate(39,190)"/>
<path d="M0 0 C0.99 0.33 1.98 0.66 3 1 C2.67 1.66 2.34 2.32 2 3 C1.34 2.67 0.68 2.34 0 2 C-0.17942163 5.94727588 -0.09350689 8.5980513 2 12 C4.57327433 10.78969026 4.57327433 10.78969026 7 9 C7 7.68 7 6.36 7 5 C7 4.34 7 3.68 7 3 C6.01 2.67 5.02 2.34 4 2 C5.32 1.34 6.64 0.68 8 0 C10.32590854 3.63423209 10.16265833 6.77088331 10 11 C9.34 11 8.68 11 8 11 C8 11.66 8 12.32 8 13 C1.9453125 13.1953125 1.9453125 13.1953125 0 13 C-2 11 -2 11 -2.1953125 8.6171875 C-2.17210937 7.71226562 -2.14890625 6.80734375 -2.125 5.875 C-2.10695312 4.96492187 -2.08890625 4.05484375 -2.0703125 3.1171875 C-2.04710937 2.41851562 -2.02390625 1.71984375 -2 1 C-1.34 0.67 -0.68 0.34 0 0 Z " fill="#162169" transform="translate(198,191)"/>
<path d="M0 0 C0.309375 0.639375 0.61875 1.27875 0.9375 1.9375 C1.8345163 3.93610821 1.8345163 3.93610821 3 5 C3 3.68 3 2.36 3 1 C6 1 6 1 7.5625 2.5 C8.036875 2.995 8.51125 3.49 9 4 C9.66 4 10.32 4 11 4 C10.67 5.32 10.34 6.64 10 8 C9.01 7.67 8.02 7.34 7 7 C4.83284443 7.87483915 4.83284443 7.87483915 3 9 C3 8.34 3 7.68 3 7 C2.34 7 1.68 7 1 7 C0.67 7.99 0.34 8.98 0 10 C-0.33 9.34 -0.66 8.68 -1 8 C-1.66 7.67 -2.32 7.34 -3 7 C-2.34 7 -1.68 7 -1 7 C-1.020625 6.030625 -1.04125 5.06125 -1.0625 4.0625 C-1 1 -1 1 0 0 Z " fill="#26295F" transform="translate(120,218)"/>
<path d="M0 0 C0.99 0.66 1.98 1.32 3 2 C2.34 2 1.68 2 1 2 C0.34 4.64 -0.32 7.28 -1 10 C-1.33 9.34 -1.66 8.68 -2 8 C-6.52898017 10.43071371 -6.52898017 10.43071371 -8.875 14.75 C-8.91625 15.4925 -8.9575 16.235 -9 17 C-10.98 17.33 -12.96 17.66 -15 18 C-11.60139593 13.29334213 -8.11187266 9.11187266 -4 5 C-3.67 4.01 -3.34 3.02 -3 2 C-2.01 1.34 -1.02 0.68 0 0 Z " fill="#1F265F" transform="translate(233,138)"/>
<path d="M0 0 C4.75 0.75 4.75 0.75 7 3 C7.66 3.33 8.32 3.66 9 4 C9.33 3.01 9.66 2.02 10 1 C11.5625 2.75 11.5625 2.75 13 5 C12.6875 7.25 12.6875 7.25 12 9 C12 8.34 12 7.68 12 7 C11.34 7 10.68 7 10 7 C9.67 7.66 9.34 8.32 9 9 C8.236875 8.21625 7.47375 7.4325 6.6875 6.625 C4.09108195 3.92742283 4.09108195 3.92742283 1 2 C1 3.98 1 5.96 1 8 C0.01 8.33 -0.98 8.66 -2 9 C-2 5.61976483 -1.12544378 3.16531063 0 0 Z " fill="#1D2469" transform="translate(124,201)"/>
<path d="M0 0 C6.15234375 -0.09765625 6.15234375 -0.09765625 8 0 C9 1 9 1 9.125 4 C9 7 9 7 8 8 C5.32941149 8.14115161 2.67567762 8.04247107 0 8 C0 5.36 0 2.72 0 0 Z M3 2 C3.33 3.65 3.66 5.3 4 7 C5.32 6.67 6.64 6.34 8 6 C8 5.01 8 4.02 8 3 C6.35 2.67 4.7 2.34 3 2 Z " fill="#1B236E" transform="translate(167,190)"/>
<path d="M0 0 C0.99 0.33 1.98 0.66 3 1 C3 1.99 3 2.98 3 4 C4.65 4 6.3 4 8 4 C8 3.34 8 2.68 8 2 C9.875 2.3125 9.875 2.3125 12 3 C14 6 14 6 14 9 C13.34 9 12.68 9 12 9 C11.67 7.68 11.34 6.36 11 5 C7.7 5 4.4 5 1 5 C1 5.66 1 6.32 1 7 C0.01 7.33 -0.98 7.66 -2 8 C-2.33 7.34 -2.66 6.68 -3 6 C-2.06553465 3.96855359 -1.06775224 1.96466413 0 0 Z " fill="#2F3584" transform="translate(92,197)"/>
<path d="M0 0 C1.02802734 0.05478516 2.05605469 0.10957031 3.11523438 0.16601562 C4.72301758 0.27526367 4.72301758 0.27526367 6.36328125 0.38671875 C7.44673828 0.44794922 8.53019531 0.50917969 9.64648438 0.57226562 C12.32406503 0.72560725 14.99993407 0.89346532 17.67578125 1.07421875 C15.67578125 3.07421875 15.67578125 3.07421875 13.24560547 3.30126953 C12.25061035 3.2907959 11.25561523 3.28032227 10.23046875 3.26953125 C9.15410156 3.26308594 8.07773438 3.25664063 6.96875 3.25 C5.84082031 3.23324219 4.71289062 3.21648438 3.55078125 3.19921875 C2.41511719 3.19019531 1.27945313 3.18117187 0.109375 3.171875 C-2.70203174 3.14824973 -5.51302173 3.11530888 -8.32421875 3.07421875 C-5.77481757 -0.19185157 -4.03525155 -0.24523628 0 0 Z " fill="#222A70" transform="translate(163.32421875,36.92578125)"/>
<path d="M0 0 C0.5662207 0.32145996 1.13244141 0.64291992 1.71582031 0.97412109 C4.16231069 2.07289756 5.88172002 2.30601568 8.546875 2.4140625 C9.81337891 2.47207031 9.81337891 2.47207031 11.10546875 2.53125 C12.41451172 2.57765625 12.41451172 2.57765625 13.75 2.625 C14.63816406 2.66367188 15.52632812 2.70234375 16.44140625 2.7421875 C18.6273998 2.83620873 20.81339062 2.92186143 23 3 C23 3.99 23 4.98 23 6 C16.4 6 9.8 6 3 6 C2.01 4.02 1.02 2.04 0 0 Z " fill="#19205F" transform="translate(178,141)"/>
<path d="M0 0 C0.66 0.33 1.32 0.66 2 1 C1.01 3.97 0.02 6.94 -1 10 C-3.45862401 10.05383848 -5.9160755 10.09359038 -8.375 10.125 C-9.42300781 10.15013672 -9.42300781 10.15013672 -10.4921875 10.17578125 C-12.32897486 10.19344267 -14.16601963 10.10303261 -16 10 C-16.66 9.34 -17.32 8.68 -18 8 C-10.08 7.505 -10.08 7.505 -2 7 C-2 5.35 -2 3.7 -2 2 C-1.34 1.34 -0.68 0.68 0 0 Z " fill="#242C71" transform="translate(148,30)"/>
<path d="M0 0 C0.99 1.32 1.98 2.64 3 4 C3.928125 3.34 4.85625 2.68 5.8125 2 C9 0 9 0 12 0 C11.67 0.99 11.34 1.98 11 3 C10.01 3.33 9.02 3.66 8 4 C7.67 4.66 7.34 5.32 7 6 C6.34 6 5.68 6 5 6 C5 6.66 5 7.32 5 8 C3.02 8.33 1.04 8.66 -1 9 C-2.60031344 5.79937313 -1.03173691 3.27728194 0 0 Z " fill="#1A225F" transform="translate(138,56)"/>
<path d="M0 0 C0.66 0 1.32 0 2 0 C2.33 0.99 2.66 1.98 3 3 C5.01508358 3.73323796 5.01508358 3.73323796 7 4 C7 3.01 7 2.02 7 1 C7.99 1 8.98 1 10 1 C10.33 2.32 10.66 3.64 11 5 C10.34 5 9.68 5 9 5 C9 5.66 9 6.32 9 7 C2.6 7.49230769 2.6 7.49230769 -0.4375 5 C-0.953125 4.34 -1.46875 3.68 -2 3 C-1.34 2.01 -0.68 1.02 0 0 Z " fill="#262957" transform="translate(134,220)"/>
<path d="M0 0 C0.33 0 0.66 0 1 0 C1.80395025 4.22282518 2.11811363 8.19613764 2.09765625 12.4921875 C2.09443359 13.69101563 2.09121094 14.88984375 2.08789062 16.125 C2.07951172 17.3625 2.07113281 18.6 2.0625 19.875 C2.05798828 21.13570312 2.05347656 22.39640625 2.04882812 23.6953125 C2.0370796 26.79692386 2.02065167 29.89843725 2 33 C1.01 33 0.02 33 -1 33 C-0.96970703 32.39115967 -0.93941406 31.78231934 -0.90820312 31.1550293 C-0.76936685 28.33264811 -0.63466869 25.51008299 -0.5 22.6875 C-0.45230469 21.73037109 -0.40460938 20.77324219 -0.35546875 19.78710938 C-0.0443105 13.18610932 0.05821271 6.60795095 0 0 Z " fill="#202665" transform="translate(139,111)"/>
<path d="M0 0 C-1.75 2.0625 -1.75 2.0625 -5 4 C-9.05744319 4.05803885 -12.98966561 3.58843822 -17 3 C-17 2.34 -17 1.68 -17 1 C-4.99067164 -3.39365672 -4.99067164 -3.39365672 0 0 Z " fill="#1E2452" transform="translate(185,177)"/>
<path d="M0 0 C7.42127363 0.78949719 14.13311651 3.12033918 21 6 C20.67 6.66 20.34 7.32 20 8 C19.47792969 7.81824219 18.95585937 7.63648438 18.41796875 7.44921875 C12.34250187 5.37440957 6.20694217 3.63584831 0 2 C0 1.34 0 0.68 0 0 Z " fill="#1E266B" transform="translate(182,39)"/>
<path d="M0 0 C1.32 0.33 2.64 0.66 4 1 C4 1.66 4 2.32 4 3 C4.99 3.66 5.98 4.32 7 5 C7.33 3.68 7.66 2.36 8 1 C8.66 1.33 9.32 1.66 10 2 C10 2.99 10 3.98 10 5 C9.34 5 8.68 5 8 5 C8 5.66 8 6.32 8 7 C6.02 7.33 4.04 7.66 2 8 C2 7.34 2 6.68 2 6 C1.34 6 0.68 6 0 6 C0 4.02 0 2.04 0 0 Z " fill="#1A216B" transform="translate(122,192)"/>
<path d="M0 0 C3.3 0 6.6 0 10 0 C10.33 2.31 10.66 4.62 11 7 C7.93109813 8.53445094 5.29905734 7.54984289 2 7 C1.67 6.01 1.34 5.02 1 4 C2.65 4 4.3 4 6 4 C6 4.66 6 5.32 6 6 C6.99 5.01 7.98 4.02 9 3 C8.34 3 7.68 3 7 3 C7 2.34 7 1.68 7 1 C4.69 1 2.38 1 0 1 C0 0.67 0 0.34 0 0 Z " fill="#1D255F" transform="translate(42,186)"/>
<path d="M0 0 C2.97 0.495 2.97 0.495 6 1 C7.17571451 4.67410785 7.07366746 8.16929183 7 12 C5.02 12.99 5.02 12.99 3 14 C3.33 10.7 3.66 7.4 4 4 C1.525 3.01 1.525 3.01 -1 2 C-0.67 1.34 -0.34 0.68 0 0 Z " fill="#1F276C" transform="translate(130,187)"/>
<path d="M0 0 C0.66 0 1.32 0 2 0 C2.03738281 0.61488281 2.07476562 1.22976562 2.11328125 1.86328125 C2.17902344 2.67152344 2.24476562 3.47976562 2.3125 4.3125 C2.37050781 5.11300781 2.42851563 5.91351563 2.48828125 6.73828125 C3.08206694 9.36272334 3.95780294 10.30820672 6 12 C3.3333581 13.33332095 1.83319697 12.67102033 -1 12 C-1.02687279 10.18757948 -1.04633715 8.37504767 -1.0625 6.5625 C-1.07410156 5.55316406 -1.08570312 4.54382813 -1.09765625 3.50390625 C-1 1 -1 1 0 0 Z " fill="#262B58" transform="translate(99,215)"/>
<path d="M0 0 C6.75 -0.125 6.75 -0.125 9 1 C9 2.65 9 4.3 9 6 C6.36 6 3.72 6 1 6 C1 5.34 1 4.68 1 4 C1.66 3.67 2.32 3.34 3 3 C3 2.34 3 1.68 3 1 C2.01 0.67 1.02 0.34 0 0 Z " fill="#282E6D" transform="translate(71,186)"/>
<path d="M0 0 C1.13538208 0.09958008 1.13538208 0.09958008 2.29370117 0.20117188 C2.95370117 1.19117187 3.61370117 2.18117188 4.29370117 3.20117188 C-0.16457809 3.25900228 -4.62276163 3.29471042 -9.08129883 3.32617188 C-10.35231445 3.34292969 -11.62333008 3.3596875 -12.93286133 3.37695312 C-14.14458008 3.38339844 -15.35629883 3.38984375 -16.60473633 3.39648438 C-17.72541504 3.40695801 -18.84609375 3.41743164 -20.00073242 3.42822266 C-22.70629883 3.20117188 -22.70629883 3.20117188 -24.70629883 1.20117188 C-21.14388533 1.0326218 -17.58135558 0.86666415 -14.01879883 0.70117188 C-13.01139648 0.65347656 -12.00399414 0.60578125 -10.96606445 0.55664062 C-9.50136719 0.48896484 -9.50136719 0.48896484 -8.00708008 0.41992188 C-7.11158447 0.37802734 -6.21608887 0.33613281 -5.29345703 0.29296875 C-3.52738236 0.23030535 -1.76232374 0.13100178 0 0 Z " fill="#2F3780" transform="translate(113.706298828125,103.798828125)"/>
<path d="M0 0 C0.66 0 1.32 0 2 0 C2.33 2.31 2.66 4.62 3 7 C-0.28976808 8.09658936 -1.71303767 7.79953138 -5 7 C-5 5.68 -5 4.36 -5 3 C-3.35 3 -1.7 3 0 3 C0 2.01 0 1.02 0 0 Z " fill="#242756" transform="translate(196,219)"/>
<path d="M0 0 C10.18987342 3.78481013 10.18987342 3.78481013 13 8 C12.6875 11.1875 12.6875 11.1875 12 14 C11.34 13.67 10.68 13.34 10 13 C10 11.35 10 9.7 10 8 C9.04287109 7.63648438 9.04287109 7.63648438 8.06640625 7.265625 C7.24011719 6.93046875 6.41382813 6.5953125 5.5625 6.25 C4.32693359 5.76273438 4.32693359 5.76273438 3.06640625 5.265625 C1 4 1 4 0.21484375 1.859375 C0.14394531 1.24578125 0.07304688 0.6321875 0 0 Z " fill="#162061" transform="translate(42,192)"/>
<path d="M0 0 C0.99 0 1.98 0 3 0 C2.896875 0.9075 2.79375 1.815 2.6875 2.75 C2.64917869 6.19396698 2.64917869 6.19396698 5.5 8.25 C6.325 8.8275 7.15 9.405 8 10 C8 10.66 8 11.32 8 12 C5.6875 11.8125 5.6875 11.8125 3 11 C0.00820044 7.38920743 -0.32120156 4.60388896 0 0 Z " fill="#2F3584" transform="translate(192,194)"/>
<path d="M0 0 C2.70108504 0.090916 5.36930311 0.23740766 8.0625 0.4375 C9.20041992 0.51581055 9.20041992 0.51581055 10.36132812 0.59570312 C12.24121722 0.72575835 14.12065685 0.86228038 16 1 C12.97036464 2.70812388 10.38846198 3.42211969 6.9375 3.8125 C6.08027344 3.92207031 5.22304688 4.03164062 4.33984375 4.14453125 C2 4 2 4 0.19140625 2.51171875 C-0.39833984 1.76341797 -0.39833984 1.76341797 -1 1 C-0.67 0.67 -0.34 0.34 0 0 Z " fill="#151F48" transform="translate(36,220)"/>
<path d="M0 0 C2.49055871 3.76435592 2.03090984 6.86617377 1.625 11.25 C1.51414063 12.51328125 1.40328125 13.7765625 1.2890625 15.078125 C1.19367188 16.04234375 1.09828125 17.0065625 1 18 C-1 16 -1 16 -1.23046875 12.8125 C-1.21628906 11.554375 -1.20210937 10.29625 -1.1875 9 C-1.18105469 7.741875 -1.17460937 6.48375 -1.16796875 5.1875 C-1 2 -1 2 0 0 Z " fill="#182264" transform="translate(234,89)"/>
<path d="M0 0 C0 0.66 0 1.32 0 2 C-1.65 2 -3.3 2 -5 2 C-5.33 2.99 -5.66 3.98 -6 5 C-6.66 5 -7.32 5 -8 5 C-8.495 5.495 -8.99 5.99 -9.5 6.5 C-9.995 6.995 -10.49 7.49 -11 8 C-11.66 8 -12.32 8 -13 8 C-10.95058999 2.26165198 -5.98766709 -0.70443142 0 0 Z " fill="#172066" transform="translate(173,41)"/>
<path d="M0 0 C0.66 0.99 1.32 1.98 2 3 C1.67 3.99 1.34 4.98 1 6 C2.98 5.67 4.96 5.34 7 5 C7 3.35 7 1.7 7 0 C7.33 0 7.66 0 8 0 C8.125 2.875 8.125 2.875 8 6 C5.60543557 8.39456443 4.34192692 8.75546876 1 9 C-0.8125 7.5625 -0.8125 7.5625 -2 6 C-1.34 4.02 -0.68 2.04 0 0 Z " fill="#272B59" transform="translate(85,219)"/>
<path d="M0 0 C1.375 2.0625 1.375 2.0625 2 4 C0 6 0 6 -3.625 6.125 C-4.73875 6.08375 -5.8525 6.0425 -7 6 C-7 5.67 -7 5.34 -7 5 C-5.02 5 -3.04 5 -1 5 C-1 4.01 -1 3.02 -1 2 C-3.31 2 -5.62 2 -8 2 C-8 1.34 -8 0.68 -8 0 C-5.04063954 -1.47968023 -3.13239866 -0.84835797 0 0 Z " fill="#24296F" transform="translate(48,199)"/>
<path d="M0 0 C1.32 1.65 2.64 3.3 4 5 C3.01 5.495 3.01 5.495 2 6 C2 6.66 2 7.32 2 8 C0.35 8 -1.3 8 -3 8 C-3.33 6.68 -3.66 5.36 -4 4 C-3.34 4 -2.68 4 -2 4 C-1.34 2.68 -0.68 1.36 0 0 Z M-2 4 C-1 6 -1 6 -1 6 Z " fill="#20276E" transform="translate(98,193)"/>
<path d="M0 0 C0.33 0.66 0.66 1.32 1 2 C2.98 1.34 4.96 0.68 7 0 C7 0.66 7 1.32 7 2 C7.66 2.66 8.32 3.32 9 4 C6.03 4 3.06 4 0 4 C-0.33 4.99 -0.66 5.98 -1 7 C-1.66 5.68 -2.32 4.36 -3 3 C-2.01 2.67 -1.02 2.34 0 2 C0 1.34 0 0.68 0 0 Z " fill="#1A1E5D" transform="translate(38,200)"/>
<path d="M0 0 C0 0.66 0 1.32 0 2 C-0.515625 2.45375 -1.03125 2.9075 -1.5625 3.375 C-2.2740625 4.179375 -2.2740625 4.179375 -3 5 C-2.74276031 7.02919843 -2.74276031 7.02919843 -2 9 C-2 9.99 -2 10.98 -2 12 C-2.66 12 -3.32 12 -4 12 C-6.4294516 8.3558226 -6.16179575 6.28758728 -6 2 C-2.25 0 -2.25 0 0 0 Z " fill="#222864" transform="translate(42,187)"/>
<path d="M0 0 C0 0.66 0 1.32 0 2 C-0.66 2.66 -1.32 3.32 -2 4 C-2.8840137 5.03402815 -3.75858501 6.07618185 -4.625 7.125 C-5.40875 8.07375 -6.1925 9.0225 -7 10 C-8.32 9.67 -9.64 9.34 -11 9 C-9.54782324 7.49403892 -8.08807139 5.99537896 -6.625 4.5 C-5.40683594 3.24703125 -5.40683594 3.24703125 -4.1640625 1.96875 C-2 0 -2 0 0 0 Z " fill="#1A2368" transform="translate(220,144)"/>
<path d="M0 0 C0.84256348 0.23771118 0.84256348 0.23771118 1.70214844 0.48022461 C4.09674429 1.02188362 6.31438553 1.20641474 8.765625 1.31640625 C9.65507813 1.35830078 10.54453125 1.40019531 11.4609375 1.44335938 C12.38132812 1.48267578 13.30171875 1.52199219 14.25 1.5625 C15.18585938 1.60568359 16.12171875 1.64886719 17.0859375 1.69335938 C19.39048641 1.7991805 21.69513839 1.90126557 24 2 C24 2.33 24 2.66 24 3 C16.41 3 8.82 3 1 3 C0.67 2.01 0.34 1.02 0 0 Z " fill="#273075" transform="translate(87,102)"/>
<path d="M0 0 C0.66 0.33 1.32 0.66 2 1 C1.67 4.63 1.34 8.26 1 12 C0.01 12 -0.98 12 -2 12 C-2.33 10.02 -2.66 8.04 -3 6 C-2.34 6 -1.68 6 -1 6 C-1.0309375 4.7934375 -1.0309375 4.7934375 -1.0625 3.5625 C-1 1 -1 1 0 0 Z " fill="#262C72" transform="translate(72,91)"/>
<path d="M0 0 C-1 3 -1 3 -3 5 C-2.67 5.66 -2.34 6.32 -2 7 C-3.32 7.33 -4.64 7.66 -6 8 C-6.33 6.35 -6.66 4.7 -7 3 C-2.25 0 -2.25 0 0 0 Z " fill="#1D2865" transform="translate(203,167)"/>
<path d="M0 0 C1.20628008 2.33214148 2.1654738 4.49642139 3 7 C2.34 7 1.68 7 1 7 C0.67 7.99 0.34 8.98 0 10 C-0.33 9.34 -0.66 8.68 -1 8 C-1.66 7.67 -2.32 7.34 -3 7 C-2.34 7 -1.68 7 -1 7 C-1.020625 6.030625 -1.04125 5.06125 -1.0625 4.0625 C-1 1 -1 1 0 0 Z " fill="#202656" transform="translate(120,218)"/>
<path d="M0 0 C0.99 0.33 1.98 0.66 3 1 C3 1.66 3 2.32 3 3 C3.66 3.66 4.32 4.32 5 5 C4 6 4 6 1.4375 6.0625 C0.2309375 6.0315625 0.2309375 6.0315625 -1 6 C-1.625 4.125 -1.625 4.125 -2 2 C-1.34 1.34 -0.68 0.68 0 0 Z " fill="#21244C" transform="translate(224,217)"/>
<path d="M0 0 C1.98 0 3.96 0 6 0 C6.33 0.99 6.66 1.98 7 3 C6.01 4.485 6.01 4.485 5 6 C3 6 3 6 1.375 4.6875 C0 3 0 3 0 0 Z " fill="#1E225E" transform="translate(159,60)"/>
<path d="M0 0 C0.33 0 0.66 0 1 0 C1.33 3.3 1.66 6.6 2 10 C1.01 9.01 0.02 8.02 -1 7 C-4.12549017 6.74951364 -4.12549017 6.74951364 -7 7 C-7 6.34 -7 5.68 -7 5 C-5.02 4.67 -3.04 4.34 -1 4 C-0.67 2.68 -0.34 1.36 0 0 Z " fill="#272F7A" transform="translate(176,193)"/>
<path d="M0 0 C-0.969375 0.598125 -1.93875 1.19625 -2.9375 1.8125 C-6.23052042 3.71127509 -6.23052042 3.71127509 -7 7 C-8.65 6.67 -10.3 6.34 -12 6 C-4.43243243 -2.21621622 -4.43243243 -2.21621622 0 0 Z " fill="#293372" transform="translate(210,166)"/>
<path d="M0 0 C2.45823172 3.68734758 3.01242616 6.69699971 4 11 C3.01 11 2.02 11 1 11 C0.63890458 9.35567294 0.28629924 7.7094792 -0.0625 6.0625 C-0.25972656 5.14597656 -0.45695313 4.22945312 -0.66015625 3.28515625 C-0.77230469 2.53105469 -0.88445312 1.77695312 -1 1 C-0.67 0.67 -0.34 0.34 0 0 Z " fill="#1B246A" transform="translate(153,27)"/>
<path d="M0 0 C0.66 0 1.32 0 2 0 C0.9958588 2.7385669 0.33822766 3.81209575 -2.25 5.25 C-5.27840261 6.07592799 -7.8749763 6.14534994 -11 6 C-11 5.67 -11 5.34 -11 5 C-10.37351563 4.80664062 -9.74703125 4.61328125 -9.1015625 4.4140625 C-8.28429687 4.15367187 -7.46703125 3.89328125 -6.625 3.625 C-5.81289062 3.36976563 -5.00078125 3.11453125 -4.1640625 2.8515625 C-1.83540815 2.10145717 -1.83540815 2.10145717 0 0 Z " fill="#1C246B" transform="translate(210,203)"/>
<path d="M0 0 C1.22589844 0.15275391 1.22589844 0.15275391 2.4765625 0.30859375 C3.41628906 0.43427734 3.41628906 0.43427734 4.375 0.5625 C1.75872835 3.17877165 0.02234979 3.33919287 -3.625 3.5625 C-5.5 2.125 -5.5 2.125 -6.625 0.5625 C-4.10446405 -0.69776798 -2.7707902 -0.35624445 0 0 Z " fill="#242C68" transform="translate(74.625,150.4375)"/>
<path d="M0 0 C2.64 0 5.28 0 8 0 C8.66 1.65 9.32 3.3 10 5 C9.34 5 8.68 5 8 5 C8 4.34 8 3.68 8 3 C7.05125 3.061875 6.1025 3.12375 5.125 3.1875 C4.09375 3.125625 3.0625 3.06375 2 3 C1.34 2.01 0.68 1.02 0 0 Z " fill="#2A2E70" transform="translate(116,104)"/>
<path d="M0 0 C0.33 0 0.66 0 1 0 C1 2.97 1 5.94 1 9 C0.34 9 -0.32 9 -1 9 C-1.625 5.625 -1.625 5.625 -2 2 C-1.34 1.34 -0.68 0.68 0 0 Z " fill="#1C2348" transform="translate(95,217)"/>
<path d="M0 0 C1.32 0.66 2.64 1.32 4 2 C4 2.66 4 3.32 4 4 C0.77208445 6.1519437 -0.28400809 6.20086443 -4 6 C-3.525625 5.566875 -3.05125 5.13375 -2.5625 4.6875 C-0.76313043 2.97690387 -0.76313043 2.97690387 0 0 Z " fill="#1B1E47" transform="translate(214,216)"/>
<path d="M0 0 C1.65 0 3.3 0 5 0 C4.67 1.32 4.34 2.64 4 4 C2.02 4 0.04 4 -2 4 C-2 3.34 -2 2.68 -2 2 C-1.34 2 -0.68 2 0 2 C0 1.34 0 0.68 0 0 Z " fill="#293173" transform="translate(200,204)"/>
<path d="M0 0 C0.99 0 1.98 0 3 0 C3 0.99 3 1.98 3 3 C4.32 3 5.64 3 7 3 C7.33 3.99 7.66 4.98 8 6 C4.84918025 6 3.58152302 5.72101535 1 4 C0.25 1.875 0.25 1.875 0 0 Z " fill="#222864" transform="translate(60,187)"/>
<path d="M0 0 C-0.33 0.66 -0.66 1.32 -1 2 C-3.50390625 2.4140625 -3.50390625 2.4140625 -6.5625 2.625 C-7.57441406 2.69976562 -8.58632812 2.77453125 -9.62890625 2.8515625 C-10.41136719 2.90054688 -11.19382813 2.94953125 -12 3 C-7.82744729 -0.58050131 -5.33135955 -0.26656798 0 0 Z " fill="#212972" transform="translate(172,163)"/>
<path d="M0 0 C2.0625 0.4375 2.0625 0.4375 4 1 C3.34 1.66 2.68 2.32 2 3 C2.66 3.33 3.32 3.66 4 4 C4 3.34 4 2.68 4 2 C4.66 2.33 5.32 2.66 6 3 C5.67 3.99 5.34 4.98 5 6 C3.35 5.67 1.7 5.34 0 5 C-0.5625 3.0625 -0.5625 3.0625 -1 1 C-0.67 0.67 -0.34 0.34 0 0 Z " fill="#273081" transform="translate(204,150)"/>
<path d="M0 0 C0.66 0.99 1.32 1.98 2 3 C1.125 6.6875 1.125 6.6875 0 10 C-0.99 9.34 -1.98 8.68 -3 8 C-2.690625 7.236875 -2.38125 6.47375 -2.0625 5.6875 C-1.32106407 3.81210323 -0.63771783 1.91315348 0 0 Z " fill="#161F66" transform="translate(181,193)"/>
<path d="M0 0 C2.64 0 5.28 0 8 0 C8.33 0.99 8.66 1.98 9 3 C7.68 3.33 6.36 3.66 5 4 C5 3.34 5 2.68 5 2 C3.35 1.67 1.7 1.34 0 1 C0 0.67 0 0.34 0 0 Z " fill="#252B76" transform="translate(167,190)"/>
<path d="M0 0 C0.99 0 1.98 0 3 0 C3.33 1.32 3.66 2.64 4 4 C3.34 4 2.68 4 2 4 C1.67 4.66 1.34 5.32 1 6 C-1.475 5.01 -1.475 5.01 -4 4 C-2.68 3.67 -1.36 3.34 0 3 C0 2.01 0 1.02 0 0 Z " fill="#1B1E4C" transform="translate(141,221)"/>
<path d="M0 0 C3.65316671 1.24976756 4.78065836 1.67098753 7 5 C7.125 7.6875 7.125 7.6875 7 10 C4.53721199 7.53721199 4.00228745 5.29323018 3 2 C2.01 2 1.02 2 0 2 C0 1.34 0 0.68 0 0 Z " fill="#1F2768" transform="translate(174,186)"/>
<path d="M0 0 C0 0.66 0 1.32 0 2 C0.99 2.33 1.98 2.66 3 3 C-0.37817425 3.84454356 -2.67465243 4.10844919 -6 3 C-6 2.34 -6 1.68 -6 1 C-3 0 -3 0 0 0 Z " fill="#181E49" transform="translate(64,150)"/>
<path d="M0 0 C1.32 0 2.64 0 4 0 C4.33 0.99 4.66 1.98 5 3 C4.34 3 3.68 3 3 3 C3 4.65 3 6.3 3 8 C0.37613513 4.93882432 0 4.26826873 0 0 Z " fill="#18204A" transform="translate(82,216)"/>
<path d="M0 0 C-1 3 -1 3 -4.0625 4.6875 C-5.031875 5.120625 -6.00125 5.55375 -7 6 C-7 5.01 -7 4.02 -7 3 C-4.46815512 0.64276511 -3.52809907 0 0 0 Z " fill="#1D2765" transform="translate(211,162)"/>
<path d="M0 0 C1.32 0.66 2.64 1.32 4 2 C3.67 3.65 3.34 5.3 3 7 C1.68 5.68 0.36 4.36 -1 3 C-0.67 2.01 -0.34 1.02 0 0 Z " fill="#242B72" transform="translate(184,121)"/>
<path d="M0 0 C0.66 0 1.32 0 2 0 C1.34 3.3 0.68 6.6 0 10 C-0.33 10 -0.66 10 -1 10 C-2.23076923 4.58461538 -2.23076923 4.58461538 -1.0625 1.625 C-0.5365625 0.820625 -0.5365625 0.820625 0 0 Z " fill="#242C72" transform="translate(223,114)"/>
<path d="M0 0 C0.495 0.680625 0.99 1.36125 1.5 2.0625 C0.51 2.3925 -0.48 2.7225 -1.5 3.0625 C-1.5 2.0725 -1.5 1.0825 -1.5 0.0625 C-4.47 0.0625 -7.44 0.0625 -10.5 0.0625 C-10.5 -0.2675 -10.5 -0.5975 -10.5 -0.9375 C-3.11538462 -2.41442308 -3.11538462 -2.41442308 0 0 Z " fill="#192162" transform="translate(266.5,203.9375)"/>
<path d="M0 0 C-0.33 0.99 -0.66 1.98 -1 3 C-3.96175123 2.38722388 -5.38058783 1.74627478 -8 0 C-5.13822943 -1.43088528 -3.06624227 -0.59991697 0 0 Z " fill="#1F2565" transform="translate(234,199)"/>
<path d="M0 0 C0.99 0.66 1.98 1.32 3 2 C2.34 2 1.68 2 1 2 C1 2.66 1 3.32 1 4 C0.34 4 -0.32 4 -1 4 C-1 4.66 -1 5.32 -1 6 C-1.99 5.67 -2.98 5.34 -4 5 C-3 2 -3 2 0 0 Z " fill="#1C2250" transform="translate(233,138)"/>
<path d="M0 0 C0.66 0.33 1.32 0.66 2 1 C1.01 3.31 0.02 5.62 -1 8 C-1.99 7.67 -2.98 7.34 -4 7 C-2.68 4.69 -1.36 2.38 0 0 Z " fill="#1F276C" transform="translate(75,133)"/>
<path d="M0 0 C2.97 0.495 2.97 0.495 6 1 C5.67 1.99 5.34 2.98 5 4 C3.35 4 1.7 4 0 4 C0 2.68 0 1.36 0 0 Z " fill="#282C5E" transform="translate(191,222)"/>
<path d="M0 0 C2.31 0 4.62 0 7 0 C5 3 5 3 2.375 3.6875 C1.199375 3.8421875 1.199375 3.8421875 0 4 C0 2.68 0 1.36 0 0 Z " fill="#2C3070" transform="translate(63,186)"/>
<path d="M0 0 C0 0.66 0 1.32 0 2 C-4.455 2.495 -4.455 2.495 -9 3 C-6.01800145 0.01800145 -4.21244839 0 0 0 Z " fill="#1D2365" transform="translate(89,77)"/>
<path d="M0 0 C0 3 0 3 0 3 Z " fill="#121D68" transform="translate(135,200)"/>
<path d="M0 0 C0.99 0.495 0.99 0.495 2 1 C1.01 1.495 1.01 1.495 0 2 C0 1.34 0 0.68 0 0 Z " fill="#1A1F5B" transform="translate(162,216)"/>
<path d="" fill="#1C1C56" transform="translate(0,0)"/>
<path d="M0 0 C2 1 2 1 2 1 Z " fill="#040E47" transform="translate(233,218)"/>
<path d="" fill="#101A56" transform="translate(0,0)"/>
<path d="" fill="#18256B" transform="translate(0,0)"/>
<path d="M0 0 C2 1 2 1 2 1 Z " fill="#191E61" transform="translate(170,185)"/>
<path d="M0 0 C2 1 2 1 2 1 Z " fill="#111962" transform="translate(218,147)"/>
<path d="M0 0 C2 1 2 1 2 1 Z " fill="#111B59" transform="translate(234,137)"/>
<path d="" fill="#0D1547" transform="translate(0,0)"/>
<path d="" fill="#141A4F" transform="translate(0,0)"/>
<path d="" fill="#0E134B" transform="translate(0,0)"/>
<path d="" fill="#101653" transform="translate(0,0)"/>
<path d="" fill="#131451" transform="translate(0,0)"/>
<path d="" fill="#131854" transform="translate(0,0)"/>
<path d="" fill="#171E53" transform="translate(0,0)"/>
<path d="" fill="#171A4F" transform="translate(0,0)"/>
<path d="" fill="#111352" transform="translate(0,0)"/>
<path d="" fill="#13164E" transform="translate(0,0)"/>
<path d="" fill="#1F2255" transform="translate(0,0)"/>
<path d="" fill="#1A1D57" transform="translate(0,0)"/>
<path d="" fill="#1E2153" transform="translate(0,0)"/>
<path d="" fill="#1B1C5A" transform="translate(0,0)"/>
<path d="" fill="#00083D" transform="translate(0,0)"/>
<path d="" fill="#090E40" transform="translate(0,0)"/>
<path d="" fill="#131950" transform="translate(0,0)"/>
<path d="" fill="#000940" transform="translate(0,0)"/>
<path d="" fill="#00073B" transform="translate(0,0)"/>
<path d="" fill="#0B0E41" transform="translate(0,0)"/>
<path d="" fill="#201F4C" transform="translate(0,0)"/>
<path d="" fill="#1C1F53" transform="translate(0,0)"/>
<path d="" fill="#1D205A" transform="translate(0,0)"/>
<path d="" fill="#1A1C53" transform="translate(0,0)"/>
<path d="" fill="#1C1C59" transform="translate(0,0)"/>
<path d="" fill="#1C1D52" transform="translate(0,0)"/>
<path d="" fill="#1A1A4F" transform="translate(0,0)"/>
<path d="" fill="#14154F" transform="translate(0,0)"/>
<path d="" fill="#181C56" transform="translate(0,0)"/>
<path d="" fill="#1A1C52" transform="translate(0,0)"/>
<path d="" fill="#1D2056" transform="translate(0,0)"/>
<path d="" fill="#121A52" transform="translate(0,0)"/>
<path d="" fill="#141F56" transform="translate(0,0)"/>
<path d="" fill="#181A4C" transform="translate(0,0)"/>
<path d="" fill="#191D5B" transform="translate(0,0)"/>
<path d="" fill="#161B53" transform="translate(0,0)"/>
<path d="" fill="#191C50" transform="translate(0,0)"/>
<path d="" fill="#181D55" transform="translate(0,0)"/>
<path d="" fill="#151D59" transform="translate(0,0)"/>
<path d="" fill="#121C58" transform="translate(0,0)"/>
<path d="" fill="#141A57" transform="translate(0,0)"/>
<path d="" fill="#151B5A" transform="translate(0,0)"/>
<path d="" fill="#0D1A5B" transform="translate(0,0)"/>
<path d="" fill="#111E62" transform="translate(0,0)"/>
<path d="" fill="#18215F" transform="translate(0,0)"/>
<path d="" fill="#101657" transform="translate(0,0)"/>
<path d="" fill="#161C5D" transform="translate(0,0)"/>
<path d="" fill="#161B66" transform="translate(0,0)"/>
<path d="" fill="#1B256D" transform="translate(0,0)"/>
<path d="" fill="#151D6B" transform="translate(0,0)"/>
<path d="" fill="#161A63" transform="translate(0,0)"/>
<path d="" fill="#091358" transform="translate(0,0)"/>
<path d="" fill="#141E69" transform="translate(0,0)"/>
<path d="" fill="#0F1863" transform="translate(0,0)"/>
<path d="" fill="#0C1760" transform="translate(0,0)"/>
<path d="" fill="#14205D" transform="translate(0,0)"/>
<path d="" fill="#0F1B58" transform="translate(0,0)"/>
<path d="" fill="#131E60" transform="translate(0,0)"/>
<path d="" fill="#161E60" transform="translate(0,0)"/>
<path d="" fill="#172067" transform="translate(0,0)"/>
<path d="" fill="#1B2262" transform="translate(0,0)"/>
<path d="" fill="#111D5E" transform="translate(0,0)"/>
<path d="" fill="#141A5E" transform="translate(0,0)"/>
<path d="" fill="#111C57" transform="translate(0,0)"/>
<path d="" fill="#081452" transform="translate(0,0)"/>
<path d="" fill="#0D175D" transform="translate(0,0)"/>
<path d="" fill="#17205B" transform="translate(0,0)"/>
<path d="" fill="#172164" transform="translate(0,0)"/>
<path d="" fill="#131A58" transform="translate(0,0)"/>
<path d="" fill="#121F61" transform="translate(0,0)"/>
<path d="" fill="#192064" transform="translate(0,0)"/>
<path d="" fill="#131B59" transform="translate(0,0)"/>
<path d="" fill="#182065" transform="translate(0,0)"/>
<path d="" fill="#1A2264" transform="translate(0,0)"/>
<path d="" fill="#182161" transform="translate(0,0)"/>
<path d="" fill="#202366" transform="translate(0,0)"/>
<path d="" fill="#191F5A" transform="translate(0,0)"/>
<path d="" fill="#131B5A" transform="translate(0,0)"/>
<path d="" fill="#10195E" transform="translate(0,0)"/>
<path d="" fill="#1A2156" transform="translate(0,0)"/>
<path d="" fill="#192258" transform="translate(0,0)"/>
<path d="" fill="#10165A" transform="translate(0,0)"/>
<path d="" fill="#1A1D5D" transform="translate(0,0)"/>
<path d="" fill="#131A60" transform="translate(0,0)"/>
<path d="" fill="#121860" transform="translate(0,0)"/>
<path d="" fill="#121A63" transform="translate(0,0)"/>
<path d="" fill="#1B1F5F" transform="translate(0,0)"/>
<path d="" fill="#0E1A61" transform="translate(0,0)"/>
<path d="" fill="#141C63" transform="translate(0,0)"/>
<path d="" fill="#0B1757" transform="translate(0,0)"/>
<path d="" fill="#1C2060" transform="translate(0,0)"/>
<path d="" fill="#131B62" transform="translate(0,0)"/>
<path d="" fill="#161D64" transform="translate(0,0)"/>
<path d="" fill="#162264" transform="translate(0,0)"/>
<path d="" fill="#112065" transform="translate(0,0)"/>
<path d="" fill="#101961" transform="translate(0,0)"/>
<path d="" fill="#181F5A" transform="translate(0,0)"/>
<path d="" fill="#0F1A51" transform="translate(0,0)"/>
<path d="" fill="#0D174C" transform="translate(0,0)"/>
<path d="" fill="#071042" transform="translate(0,0)"/>
<path d="" fill="#111C54" transform="translate(0,0)"/>
<path d="" fill="#0C1954" transform="translate(0,0)"/>
<path d="" fill="#161C57" transform="translate(0,0)"/>
<path d="" fill="#131957" transform="translate(0,0)"/>
<path d="" fill="#111C5E" transform="translate(0,0)"/>
<path d="" fill="#1C1F69" transform="translate(0,0)"/>
<path d="" fill="#0E165F" transform="translate(0,0)"/>
<path d="" fill="#12185E" transform="translate(0,0)"/>
<path d="" fill="#131967" transform="translate(0,0)"/>
<path d="" fill="#1B206C" transform="translate(0,0)"/>
<path d="" fill="#18216B" transform="translate(0,0)"/>
<path d="" fill="#1B1E64" transform="translate(0,0)"/>
<path d="" fill="#1A2369" transform="translate(0,0)"/>
<path d="" fill="#1B246A" transform="translate(0,0)"/>
<path d="" fill="#1B2468" transform="translate(0,0)"/>
<path d="" fill="#1B1D63" transform="translate(0,0)"/>
<path d="" fill="#1C216A" transform="translate(0,0)"/>
<path d="" fill="#151C64" transform="translate(0,0)"/>
<path d="" fill="#151B5A" transform="translate(0,0)"/>
<path d="" fill="#0B1460" transform="translate(0,0)"/>
</svg>
